<svg width="24" height="24" viewBox="0 0 24 24" fill="none" xmlns="http://www.w3.org/2000/svg">
<path d="M9.33284 10.6666C7.91835 10.6666 6.56192 10.1045 5.56171 9.10431C4.56149 8.10432 3.99967 6.74766 3.99967 5.33317C3.99967 3.91868 4.56149 2.56224 5.56171 1.56203C6.56192 0.561819 7.91835 0 9.33284 0C10.7473 0 12.104 0.561819 13.104 1.56203C14.1042 2.56224 14.6662 3.91868 14.6662 5.33317C14.6662 6.74766 14.1042 8.10432 13.104 9.10431C12.104 10.1045 10.7473 10.6666 9.33284 10.6666V10.6666ZM9.33284 2.6667C8.62571 2.6667 7.94738 2.9475 7.44739 3.44771C6.94718 3.94771 6.66637 4.62604 6.66637 5.33317C6.66637 6.04053 6.94718 6.71863 7.44739 7.21885C7.94738 7.71885 8.62571 7.99987 9.33284 7.99987C10.0402 7.99987 10.7183 7.71885 11.2185 7.21885C11.7185 6.71864 11.9995 6.04053 11.9995 5.33317C11.9995 4.62604 11.7185 3.94771 11.2185 3.44771C10.7183 2.9475 10.0402 2.6667 9.33284 2.6667Z" fill="#FFBD59"/>
<path d="M1.33323 23.9997C0.979665 23.9997 0.640613 23.8593 0.390617 23.6091C0.140398 23.3591 0 23.02 0 22.6665V18.6665C0.00200888 16.8989 0.705132 15.2045 1.95488 13.9548C3.20463 12.705 4.89901 12.0019 6.66664 11.9999H11.9998C12.5724 11.9959 13.1424 12.0709 13.6944 12.2227C14.1531 12.3517 14.5082 12.7157 14.6256 13.1776C14.7433 13.6394 14.6056 14.1287 14.2645 14.4615C13.9232 14.7943 13.4306 14.9197 12.9719 14.7905C12.6551 14.7039 12.3279 14.6622 11.9998 14.6666H6.66662C5.60572 14.6666 4.58831 15.088 3.83809 15.838C3.0881 16.5882 2.66668 17.6057 2.66668 18.6666V22.6665C2.66668 23.0201 2.52606 23.3591 2.27607 23.6091C2.02607 23.8593 1.68699 23.9997 1.33322 23.9997L1.33323 23.9997Z" fill="#FFBD59"/>
<path d="M18.6669 23.9995C18.3133 23.9995 17.9741 23.8588 17.7243 23.6088L13.7244 19.6089C13.4744 19.3589 13.334 19.0198 13.334 18.6663C13.334 18.3128 13.4744 17.9737 13.7244 17.7237L17.7243 13.7237C18.0629 13.3965 18.5488 13.2724 19.0031 13.3967C19.4571 13.5213 19.8117 13.876 19.9363 14.3302C20.0609 14.7842 19.9365 15.2704 19.6095 15.609L16.5522 18.6663L19.6095 21.7236C19.8595 21.9736 19.9999 22.3127 19.9999 22.6662C19.9999 23.0198 19.8595 23.3589 19.6095 23.6089C19.3595 23.8589 19.0204 23.9995 18.6669 23.9995L18.6669 23.9995Z" fill="#FFBD59"/>
<path d="M22.6666 19.9998H14.6668C14.1904 19.9998 13.7503 19.7456 13.5121 19.3331C13.2739 18.9206 13.2739 18.4124 13.5121 17.9999C13.7503 17.5874 14.1904 17.3331 14.6668 17.3331H22.6666C23.143 17.3331 23.5831 17.5874 23.8213 17.9999C24.0595 18.4124 24.0595 18.9206 23.8213 19.3331C23.5831 19.7456 23.143 19.9998 22.6666 19.9998Z" fill="#FFBD59"/>
</svg>
