<svg width="24" height="24" viewBox="0 0 24 24" fill="none" xmlns="http://www.w3.org/2000/svg">
<path d="M9.33279 10.6668C7.91827 10.6668 6.56181 10.1047 5.56157 9.10449C4.56134 8.10449 3.99951 6.7478 3.99951 5.33328C3.99951 3.91876 4.56134 2.5623 5.56157 1.56206C6.56181 0.561831 7.91827 0 9.33279 0C10.7473 0 12.104 0.561831 13.104 1.56206C14.1042 2.5623 14.6663 3.91876 14.6663 5.33328C14.6663 6.7478 14.1042 8.10449 13.104 9.10449C12.104 10.1047 10.7473 10.6668 9.33279 10.6668V10.6668ZM9.33279 2.66675C8.62564 2.66675 7.9473 2.94756 7.4473 3.44779C6.94707 3.94779 6.66626 4.62613 6.66626 5.33328C6.66626 6.04065 6.94707 6.71877 7.4473 7.219C7.9473 7.719 8.62564 8.00003 9.33279 8.00003C10.0402 8.00003 10.7183 7.719 11.2185 7.219C11.7185 6.71878 11.9995 6.04065 11.9995 5.33328C11.9995 4.62613 11.7185 3.94779 11.2185 3.44779C10.7183 2.94756 10.0402 2.66675 9.33279 2.66675Z" fill="#575B5F"/>
<path d="M1.33326 24.0002C0.979684 24.0002 0.640626 23.8598 0.390625 23.6096C0.140401 23.3596 0 23.0205 0 22.6669V18.6669C0.00200892 16.8993 0.705146 15.2049 1.95492 13.9551C3.2047 12.7053 4.89911 12.0022 6.66677 12.0002H12C12.5726 11.9961 13.1427 12.0711 13.6947 12.2229C14.1534 12.3519 14.5085 12.716 14.6259 13.1778C14.7436 13.6397 14.6059 14.129 14.2648 14.4618C13.9235 14.7946 13.4308 14.92 12.9721 14.7908C12.6554 14.7042 12.3281 14.6625 12 14.6669H6.66675C5.60583 14.6669 4.5884 15.0883 3.83817 15.8384C3.08817 16.5886 2.66674 17.606 2.66674 18.6669V22.667C2.66674 23.0205 2.52611 23.3596 2.27611 23.6096C2.02611 23.8598 1.68702 24.0002 1.33325 24.0002L1.33326 24.0002Z" fill="#575B5F"/>
<path d="M18.6675 23.9999C18.3139 23.9999 17.9747 23.8593 17.7249 23.6093L13.7249 19.6093C13.4749 19.3593 13.3345 19.0202 13.3345 18.6667C13.3345 18.3131 13.4749 17.974 13.7249 17.724L17.7249 13.724C18.0635 13.3968 18.5495 13.2727 19.0037 13.397C19.4577 13.5216 19.8124 13.8763 19.937 14.3305C20.0615 14.7845 19.9372 15.2707 19.6102 15.6093L16.5528 18.6667L19.6102 21.7241C19.8602 21.9741 20.0006 22.3132 20.0006 22.6667C20.0006 23.0202 19.8602 23.3593 19.6102 23.6093C19.3602 23.8593 19.0211 24 18.6675 24L18.6675 23.9999Z" fill="#575B5F"/>
<path d="M22.6668 20.0002H14.6668C14.1905 20.0002 13.7503 19.746 13.5121 19.3335C13.274 18.921 13.274 18.4128 13.5121 18.0002C13.7503 17.5877 14.1905 17.3335 14.6668 17.3335H22.6668C23.1432 17.3335 23.5834 17.5877 23.8215 18.0002C24.0597 18.4127 24.0597 18.921 23.8215 19.3335C23.5834 19.746 23.1432 20.0002 22.6668 20.0002Z" fill="#575B5F"/>
</svg>
