<svg width="24" height="24" viewBox="0 0 24 24" fill="none" xmlns="http://www.w3.org/2000/svg">
<path d="M21.5001 4H19.3334V5.33333H21.3334V20H2.66676V5.33333H4.66676V4H2.50009C2.34425 4.0026 2.19045 4.03588 2.04747 4.09794C1.90449 4.15999 1.77514 4.24961 1.6668 4.36166C1.55846 4.47371 1.47325 4.60601 1.41605 4.751C1.35885 4.89599 1.33077 5.05083 1.33342 5.20667V20.1267C1.33077 20.2825 1.35885 20.4373 1.41605 20.5823C1.47325 20.7273 1.55846 20.8596 1.6668 20.9717C1.77514 21.0837 1.90449 21.1733 2.04747 21.2354C2.19045 21.2974 2.34425 21.3307 2.50009 21.3333H21.5001C21.6559 21.3307 21.8097 21.2974 21.9527 21.2354C22.0957 21.1733 22.225 21.0837 22.3334 20.9717C22.4417 20.8596 22.5269 20.7273 22.5841 20.5823C22.6413 20.4373 22.6694 20.2825 22.6668 20.1267V5.20667C22.6694 5.05083 22.6413 4.89599 22.5841 4.751C22.5269 4.60601 22.4417 4.47371 22.3334 4.36166C22.225 4.24961 22.0957 4.15999 21.9527 4.09794C21.8097 4.03588 21.6559 4.0026 21.5001 4V4Z" fill="#071A2F"/>
<path d="M5.33325 9.3335H6.66659V10.6668H5.33325V9.3335Z" fill="#071A2F"/>
<path d="M9.33325 9.3335H10.6666V10.6668H9.33325V9.3335Z" fill="#071A2F"/>
<path d="M13.3333 9.3335H14.6666V10.6668H13.3333V9.3335Z" fill="#071A2F"/>
<path d="M17.3333 9.3335H18.6666V10.6668H17.3333V9.3335Z" fill="#071A2F"/>
<path d="M5.33325 12.6665H6.66659V13.9998H5.33325V12.6665Z" fill="#071A2F"/>
<path d="M9.33325 12.6665H10.6666V13.9998H9.33325V12.6665Z" fill="#071A2F"/>
<path d="M13.3333 12.6665H14.6666V13.9998H13.3333V12.6665Z" fill="#071A2F"/>
<path d="M17.3333 12.6665H18.6666V13.9998H17.3333V12.6665Z" fill="#071A2F"/>
<path d="M5.33325 16H6.66659V17.3333H5.33325V16Z" fill="#071A2F"/>
<path d="M9.33325 16H10.6666V17.3333H9.33325V16Z" fill="#071A2F"/>
<path d="M13.3333 16H14.6666V17.3333H13.3333V16Z" fill="#071A2F"/>
<path d="M17.3333 16H18.6666V17.3333H17.3333V16Z" fill="#071A2F"/>
<path d="M6.66667 6.66683C6.84348 6.66683 7.01305 6.59659 7.13807 6.47157C7.2631 6.34654 7.33333 6.17697 7.33333 6.00016V2.00016C7.33333 1.82335 7.2631 1.65378 7.13807 1.52876C7.01305 1.40373 6.84348 1.3335 6.66667 1.3335C6.48986 1.3335 6.32029 1.40373 6.19526 1.52876C6.07024 1.65378 6 1.82335 6 2.00016V6.00016C6 6.17697 6.07024 6.34654 6.19526 6.47157C6.32029 6.59659 6.48986 6.66683 6.66667 6.66683Z" fill="#071A2F"/>
<path d="M17.3334 6.66683C17.5102 6.66683 17.6798 6.59659 17.8048 6.47157C17.9298 6.34654 18.0001 6.17697 18.0001 6.00016V2.00016C18.0001 1.82335 17.9298 1.65378 17.8048 1.52876C17.6798 1.40373 17.5102 1.3335 17.3334 1.3335C17.1566 1.3335 16.987 1.40373 16.862 1.52876C16.737 1.65378 16.6667 1.82335 16.6667 2.00016V6.00016C16.6667 6.17697 16.737 6.34654 16.862 6.47157C16.987 6.59659 17.1566 6.66683 17.3334 6.66683Z" fill="#071A2F"/>
<path d="M8.66675 4H15.3334V5.33333H8.66675V4Z" fill="#071A2F"/>
</svg>
