<svg width="28" height="35" viewBox="0 0 28 35" fill="none" xmlns="http://www.w3.org/2000/svg">
<path d="M13.75 0C10.1046 0.00430059 6.60974 1.45434 4.03205 4.03203C1.45435 6.60973 0.00431522 10.1046 1.46286e-05 13.75C-0.00435149 16.729 0.96874 19.6272 2.77001 22C2.77001 22 3.14501 22.4938 3.20626 22.565L13.75 35L24.2988 22.5588C24.3538 22.4925 24.73 22 24.73 22L24.7313 21.9963C26.5316 19.6245 27.5043 16.7277 27.5 13.75C27.4957 10.1046 26.0457 6.60973 23.468 4.03203C20.8903 1.45434 17.3954 0.00430059 13.75 0V0ZM13.75 18.75C12.7611 18.75 11.7944 18.4568 10.9722 17.9073C10.1499 17.3579 9.50906 16.577 9.13062 15.6634C8.75218 14.7498 8.65316 13.7445 8.84609 12.7745C9.03902 11.8046 9.51522 10.9137 10.2145 10.2145C10.9137 9.5152 11.8047 9.039 12.7746 8.84607C13.7445 8.65315 14.7498 8.75216 15.6634 9.1306C16.5771 9.50904 17.358 10.1499 17.9074 10.9721C18.4568 11.7944 18.75 12.7611 18.75 13.75C18.7484 15.0756 18.221 16.3464 17.2837 17.2837C16.3464 18.221 15.0756 18.7483 13.75 18.75V18.75Z" fill="#FFBD59"/>
</svg>
