<svg width="24" height="24" viewBox="0 0 24 24" fill="none" xmlns="http://www.w3.org/2000/svg">
<path d="M11.9998 0.00038568C8.81728 0.00038568 5.76479 1.26469 3.51467 3.51505C1.26425 5.76546 0 8.81757 0 12.0001C0 15.1827 1.2643 18.2351 3.51467 20.4852C5.76508 22.7356 8.81718 23.9999 11.9998 23.9999C15.1823 23.9999 18.2347 22.7356 20.4848 20.4852C22.7353 18.2348 23.9995 15.1827 23.9995 12.0001C23.9995 9.89379 23.4449 7.82442 22.3917 5.99997C21.3385 4.17577 19.8237 2.661 17.9995 1.60782C16.1753 0.554648 14.1059 0 11.9994 0L11.9998 0.00038568ZM5.61726 20.1903L5.99976 19.5002C7.01601 17.8194 8.83549 16.7901 10.7997 16.7854H13.1548C15.1349 16.7743 16.9751 17.8056 17.9998 19.5002L18.4047 20.1752C16.5856 21.6009 14.341 22.3757 12.0299 22.3757C9.71878 22.3757 7.47429 21.6009 5.6551 20.1752L5.61726 20.1903ZM19.5895 19.0878L19.3496 18.6902C18.0431 16.5277 15.7036 15.2032 13.1773 15.1953H10.8224C8.29399 15.2032 5.95327 16.5313 4.65006 18.6978L4.41013 19.0953C2.54865 17.1113 1.53843 14.4768 1.59624 11.7568C1.65406 9.03665 2.77521 6.44749 4.71917 4.54451C6.66333 2.64138 9.27554 1.57542 11.996 1.57542C14.7165 1.57542 17.3289 2.64138 19.2729 4.54451C21.2171 6.44783 22.338 9.03685 22.3958 11.7568C22.4536 14.4767 21.4434 17.1109 19.5819 19.0953L19.5895 19.0878Z" fill="#575B5F"/>
<path d="M12.0005 3.2033C10.6221 3.2033 9.30021 3.75077 8.32538 4.7254C7.35074 5.70023 6.80308 7.02215 6.80308 8.40057C6.80308 9.779 7.35074 11.1011 8.32538 12.0757C9.30021 13.0506 10.6221 13.598 12.0005 13.598C13.379 13.598 14.7009 13.0506 15.6757 12.0757C16.6503 11.1011 17.198 9.779 17.198 8.40057C17.1959 7.02273 16.6477 5.70192 15.6734 4.72767C14.6992 3.75342 13.3784 3.20518 12.0005 3.2033V3.2033ZM12.0005 12.0003C11.0457 12.0003 10.1302 11.621 9.45502 10.9459C8.77984 10.2709 8.40054 9.3552 8.40054 8.40033C8.40054 7.44566 8.77985 6.52999 9.45502 5.8548C10.1302 5.17982 11.0457 4.80052 12.0005 4.80052C12.9554 4.80052 13.8709 5.17982 14.5461 5.8548C15.2213 6.52999 15.6005 7.44566 15.6005 8.40033C15.5985 9.35462 15.2186 10.269 14.5438 10.9438C13.8692 11.6184 12.9546 11.9983 12.0005 12.0003Z" fill="#575B5F"/>
</svg>
