<svg width="23" height="23" viewBox="0 0 23 23" fill="none" xmlns="http://www.w3.org/2000/svg">
<path d="M11.5 16.1C13.0086 16.1 14.2909 17.0682 14.7597 18.4172L14.8159 18.4077L14.95 18.4H21.85C22.4852 18.4 23 18.9148 23 19.55C23 20.1398 22.5561 20.6259 21.9841 20.6923L21.85 20.7H14.95C14.885 20.7 14.8212 20.6945 14.7591 20.6843C14.291 22.0318 13.0086 23 11.5 23C9.99141 23 8.70908 22.0318 8.24029 20.6828L8.18413 20.6923L8.05001 20.7H1.15001C0.514839 20.7 8.14711e-06 20.1852 8.14711e-06 19.55C8.14711e-06 18.9602 0.443949 18.4741 1.01587 18.4077L1.14999 18.4H8.04999C8.11497 18.4 8.17882 18.4055 8.24091 18.4157C8.70904 17.0682 9.99142 16.1 11.5 16.1V16.1ZM11.5 18.4C10.8648 18.4 10.35 18.9148 10.35 19.55C10.35 20.1852 10.8648 20.7 11.5 20.7C12.1352 20.7 12.65 20.1852 12.65 19.55C12.65 18.9148 12.1352 18.4 11.5 18.4ZM3.45001 8.05C4.95856 8.05 6.24094 9.01822 6.70973 10.3672L6.76588 10.3577L6.9 10.35H21.85C22.4852 10.35 23 10.8648 23 11.5C23 12.0897 22.5561 12.5759 21.9841 12.6423L21.85 12.65H6.90002C6.83504 12.65 6.77119 12.6445 6.7091 12.6343C6.24097 13.9818 4.9586 14.95 3.45 14.95C1.54466 14.95 0 13.4053 0 11.5C0 9.59465 1.54466 8.04999 3.45 8.04999L3.45001 8.05ZM3.45001 10.35C2.81484 10.35 2.30001 10.8648 2.30001 11.5C2.30001 12.1352 2.81484 12.65 3.45001 12.65C4.08518 12.65 4.60001 12.1352 4.60001 11.5C4.60001 10.8648 4.08518 10.35 3.45001 10.35ZM16.1 0C17.6086 0 18.8909 0.968218 19.3597 2.31717L19.4159 2.3077L19.55 2.3H21.85C22.4852 2.3 23 2.81483 23 3.45C23 4.03975 22.5561 4.52587 21.9841 4.59228L21.85 4.59998H19.55C19.485 4.59998 19.4212 4.59453 19.3591 4.58426C18.891 5.93177 17.6086 6.89999 16.1 6.89999C14.5914 6.89999 13.3091 5.93177 12.8403 4.58282L12.7841 4.59229L12.65 4.59999H1.15001C0.514839 4.59999 8.14711e-06 4.08516 8.14711e-06 3.44999C8.14711e-06 2.86024 0.443949 2.37412 1.01587 2.30771L1.14999 2.30001H12.65C12.715 2.30001 12.7788 2.30546 12.8409 2.31573C13.309 0.968218 14.5914 0 16.1 0V0ZM16.1 2.3C15.4648 2.3 14.95 2.81483 14.95 3.45C14.95 4.08517 15.4648 4.6 16.1 4.6C16.7352 4.6 17.25 4.08517 17.25 3.45C17.25 2.81483 16.7352 2.3 16.1 2.3Z" fill="white"/>
</svg>
