<svg width="21" height="21" viewBox="0 0 21 21" fill="none" xmlns="http://www.w3.org/2000/svg">
<path d="M12 12.75H16.5V14.25H12V12.75ZM12 9.75H21V11.25H12V9.75ZM12 6.75H21V8.25H12V6.75ZM9 14.25V12.75H5.25V11.25H3.75V12.75H0V14.25H6.16125C5.88557 15.3756 5.31141 16.4061 4.49925 17.2327C4.07351 16.7887 3.70858 16.2901 3.414 15.75H1.74975C2.13094 16.6653 2.67614 17.5033 3.3585 18.2228C2.55455 18.7953 1.67717 19.2569 0.75 19.5953L1.2765 21C2.43035 20.5797 3.51485 19.9892 4.494 19.248C5.47748 19.9896 6.56625 20.5801 7.72425 21L8.25 19.5953C7.32324 19.2575 6.44612 18.7966 5.64225 18.225C6.70093 17.1304 7.41293 15.7476 7.689 14.25H9ZM6.87525 8.25H8.49975L5.0625 0H3.43725L0 8.25H1.6245L2.25 6.75H6.24975L6.87525 8.25ZM2.87475 5.25L4.2495 1.95L5.625 5.25H2.87475Z" fill="black"/>
</svg>
