<svg width="24" height="24" viewBox="0 0 24 24" fill="none" xmlns="http://www.w3.org/2000/svg">
<path d="M11.9998 0.000385682C8.81733 0.000385682 5.76482 1.26469 3.51468 3.51507C1.26426 5.76549 0 8.81762 0 12.0002C0 15.1828 1.26431 18.2352 3.51468 20.4853C5.76511 22.7358 8.81723 24 11.9998 24C15.1824 24 18.2348 22.7357 20.4849 20.4853C22.7354 18.2349 23.9996 15.1828 23.9996 12.0002C23.9996 9.89384 23.445 7.82446 22.3918 6C21.3386 4.17579 19.8238 2.66101 17.9996 1.60783C16.1754 0.554651 14.106 0 11.9994 0L11.9998 0.000385682ZM5.61728 20.1904L5.99979 19.5003C7.01604 17.8195 8.83553 16.7902 10.7997 16.7855H13.1549C15.135 16.7743 16.9752 17.8057 17.9999 19.5003L18.4048 20.1753C16.5857 21.601 14.3411 22.3758 12.03 22.3758C9.71883 22.3758 7.47433 21.601 5.65513 20.1753L5.61728 20.1904ZM19.5896 19.0879L19.3497 18.6903C18.0432 16.5278 15.7037 15.2033 13.1774 15.1954H10.8224C8.29403 15.2033 5.95331 16.5314 4.65009 18.6979L4.41015 19.0954C2.54866 17.1113 1.53844 14.4769 1.59625 11.7568C1.65407 9.0367 2.77522 6.44752 4.7192 4.54453C6.66337 2.64139 9.27559 1.57543 11.9961 1.57543C14.7166 1.57543 17.329 2.64139 19.273 4.54453C21.2172 6.44786 22.3381 9.03689 22.3959 11.7568C22.4538 14.4767 21.4435 17.111 19.582 19.0954L19.5896 19.0879Z" fill="#575B5F"/>
<path d="M12.0006 3.2032C10.6222 3.2032 9.30025 3.75066 8.32542 4.72531C7.35078 5.70014 6.80312 7.02206 6.80312 8.40049C6.80312 9.77892 7.35078 11.101 8.32542 12.0757C9.30025 13.0505 10.6222 13.598 12.0006 13.598C13.379 13.598 14.701 13.0505 15.6758 12.0757C16.6504 11.101 17.1981 9.77892 17.1981 8.40049C17.196 7.02264 16.6478 5.70183 15.6735 4.72757C14.6993 3.75332 13.3785 3.20508 12.0006 3.2032V3.2032ZM12.0006 12.0003C11.0457 12.0003 10.1303 11.621 9.45507 10.9458C8.77988 10.2708 8.40058 9.35512 8.40058 8.40025C8.40058 7.44557 8.77989 6.5299 9.45507 5.85471C10.1303 5.17972 11.0457 4.80042 12.0006 4.80042C12.9555 4.80042 13.871 5.17973 14.5461 5.85471C15.2213 6.5299 15.6006 7.44557 15.6006 8.40025C15.5986 9.35455 15.2187 10.2689 14.5439 10.9437C13.8693 11.6183 12.9547 11.9982 12.0006 12.0003Z" fill="#575B5F"/>
</svg>
