<svg width="23" height="30" viewBox="0 0 23 30" fill="none" xmlns="http://www.w3.org/2000/svg">
<path d="M22.3359 10.125C22.0956 9.66211 21.6152 9.375 21.0937 9.375H11.9179L14.8968 1.92773C15.0708 1.49561 15.0176 1.00313 14.7558 0.616406C14.494 0.229688 14.0097 0 13.5937 0H3.28117C2.57629 0 1.98098 0.521836 1.88781 1.22109L0.0128116 15.2836C-0.0142459 15.482 0.00166837 15.6838 0.0594754 15.8755C0.117282 16.0672 0.21563 16.2442 0.347851 16.3945C0.47996 16.5452 0.642691 16.6661 0.825187 16.7489C1.00768 16.8318 1.20575 16.8748 1.40617 16.875H9.97844L7.53039 28.248C7.38941 28.9055 7.73365 29.5699 8.3507 29.8354C8.53117 29.9648 8.71867 30 8.90617 30C9.35846 30 9.79797 29.7803 10.0669 29.3883L22.2544 11.5758C22.5468 11.1445 22.582 10.5879 22.3359 10.125Z" fill="white"/>
</svg>
