<svg width="13" height="14" viewBox="0 0 13 14" fill="none" xmlns="http://www.w3.org/2000/svg">
<path d="M0.5 13.1667H12.5ZM0.5 11.1667H12.5Z" fill="#071A2F"/>
<path d="M0.5 13.1667H12.5M0.5 11.1667H12.5" stroke="black" stroke-linecap="round"/>
<path d="M1.5 7.5C1.5 4.73867 3.73867 2.5 6.5 2.5C9.26133 2.5 11.5 4.73867 11.5 7.5V11.1667H1.5V7.5Z" stroke="black" stroke-linecap="round" stroke-linejoin="round"/>
<path d="M4.16667 7.5V8.83333" stroke="black" stroke-linecap="round"/>
<path d="M7.83333 2.5V1.83333C7.83333 1.47971 7.69286 1.14057 7.44281 0.890524C7.19276 0.640476 6.85362 0.5 6.5 0.5C6.14638 0.5 5.80724 0.640476 5.55719 0.890524C5.30714 1.14057 5.16667 1.47971 5.16667 1.83333V2.5" stroke="black"/>
</svg>
