<svg width="21" height="17" viewBox="0 0 21 17" fill="none" xmlns="http://www.w3.org/2000/svg">
<path d="M20.25 0H0.75C0.335156 0 0 0.335156 0 0.75V15.75C0 16.1648 0.335156 16.5 0.75 16.5H20.25C20.6648 16.5 21 16.1648 21 15.75V0.75C21 0.335156 20.6648 0 20.25 0ZM1.6875 1.6875H19.3125V4.5H1.6875V1.6875ZM19.3125 14.8125H1.6875V6.5625H19.3125V14.8125ZM13.7578 13.3125H17.625C17.7281 13.3125 17.8125 13.2281 17.8125 13.125V11.4375C17.8125 11.3344 17.7281 11.25 17.625 11.25H13.7578C13.6547 11.25 13.5703 11.3344 13.5703 11.4375V13.125C13.5703 13.2281 13.6547 13.3125 13.7578 13.3125Z" fill="#071A2F"/>
</svg>
