<svg width="20" height="19" viewBox="0 0 20 19" fill="none" xmlns="http://www.w3.org/2000/svg">
<path d="M19.2533 6.69044L13.2887 5.8236L10.6224 0.418161C10.5496 0.270163 10.4298 0.150355 10.2818 0.0775313C9.91063 -0.105704 9.45959 0.0469921 9.27401 0.418161L6.6077 5.8236L0.643166 6.69044C0.478724 6.71393 0.328377 6.79145 0.213268 6.90891C0.0741071 7.05195 -0.00257682 7.24437 6.61195e-05 7.44392C0.00270906 7.64346 0.0844626 7.83379 0.227363 7.97309L4.54278 12.1804L3.52325 18.1215C3.49934 18.2597 3.51463 18.4018 3.56739 18.5318C3.62015 18.6617 3.70827 18.7743 3.82175 18.8567C3.93523 18.9391 4.06954 18.9881 4.20944 18.9981C4.34934 19.0081 4.48923 18.9786 4.61326 18.9132L9.94822 16.1083L15.2832 18.9132C15.4288 18.9907 15.598 19.0165 15.7601 18.9883C16.1688 18.9179 16.4437 18.5302 16.3732 18.1215L15.3537 12.1804L19.6691 7.97309C19.7865 7.85798 19.8641 7.70763 19.8876 7.54319C19.951 7.13208 19.6644 6.75152 19.2533 6.69044V6.69044Z" fill="#FFCE31"/>
</svg>
