<svg width="14" height="13" viewBox="0 0 14 13" fill="none" xmlns="http://www.w3.org/2000/svg">
<path d="M3.43471 7.52627C1.92262 7.52627 0.69789 8.751 0.69789 10.2631C0.69789 11.7752 1.92262 12.9999 3.43471 12.9999C4.94681 12.9999 6.17154 11.7752 6.17154 10.2631C6.17154 8.751 4.94681 7.52627 3.43471 7.52627ZM7.52627 7.52627V12.9999H12.9999V7.52627H7.52627ZM3.42103 0L0 6.15786H6.84206L3.42103 0ZM11.8026 0.342103C11.0773 0.342103 10.5641 0.725259 10.2631 1.14262C9.96204 0.725259 9.44889 0.342103 8.72363 0.342103C7.65627 0.342103 6.84206 1.21789 6.84206 2.22367C6.84206 3.59208 8.49784 4.56366 10.2631 6.15786C12.0283 4.56366 13.6841 3.59208 13.6841 2.22367C13.6841 1.21789 12.8699 0.342103 11.8026 0.342103Z" fill="#071A2F"/>
</svg>
