<svg width="21" height="21" viewBox="0 0 21 21" fill="none" xmlns="http://www.w3.org/2000/svg">
<path d="M20.6142 16.4499L15.8223 12.093C15.5958 11.8872 15.2981 11.7774 14.9922 11.7868C14.6862 11.7963 14.3959 11.9243 14.1826 12.1437L11.3617 15.0448C10.6827 14.9151 9.31764 14.4896 7.9125 13.088C6.50736 11.6816 6.08181 10.313 5.95568 9.63876L8.85437 6.81669C9.07411 6.60348 9.20228 6.31313 9.21174 6.00709C9.2212 5.70106 9.11121 5.40335 8.90506 5.17697L4.54936 0.386286C4.34311 0.159197 4.05647 0.02145 3.7503 0.00230079C3.44414 -0.0168484 3.14256 0.0841085 2.90963 0.28373L0.351618 2.47749C0.147815 2.68204 0.0261713 2.95426 0.00976285 3.24254C-0.00791928 3.53724 -0.345059 10.5182 5.06803 15.9336C9.79034 20.6547 15.7056 21.0001 17.3347 21.0001C17.5728 21.0001 17.719 20.993 17.7579 20.9907C18.0461 20.9746 18.3182 20.8524 18.5218 20.6477L20.7144 18.0885C20.9148 17.8563 21.0165 17.5549 20.9978 17.2488C20.979 16.9427 20.8414 16.656 20.6142 16.4499V16.4499Z" fill="white"/>
</svg>
