<svg width="19" height="19" viewBox="0 0 19 19" fill="none" xmlns="http://www.w3.org/2000/svg">
<path d="M6.66524 17.5039C6.73769 17.5824 6.77621 17.6864 6.77244 17.7932C6.76867 17.8999 6.72291 18.0009 6.6451 18.0742L5.77027 18.8922C5.69216 18.9648 5.58842 19.0034 5.48187 18.9995C5.37531 18.9957 5.27463 18.9497 5.20196 18.8717L0.10727 13.3811C0.0348713 13.3025 -0.00358325 13.1985 0.000263097 13.0917C0.00410945 12.9849 0.0499458 12.8839 0.127812 12.8107L1.00385 11.9939C1.0425 11.9579 1.08787 11.9299 1.13736 11.9115C1.18684 11.893 1.23948 11.8845 1.29226 11.8864C1.34504 11.8883 1.39692 11.9006 1.44495 11.9226C1.49298 11.9445 1.5362 11.9758 1.57216 12.0144L6.66524 17.5039ZM13.166 7.1727C13.2384 7.2513 13.2769 7.35529 13.273 7.46209C13.2692 7.56888 13.2233 7.66984 13.1455 7.74303L7.63955 12.8865C7.56143 12.959 7.4577 12.9976 7.35114 12.9938C7.24458 12.9899 7.14391 12.9439 7.07123 12.8659L5.75698 11.4477C5.68458 11.3691 5.64613 11.2651 5.64997 11.1584C5.65382 11.0516 5.69966 10.9506 5.77752 10.8774L11.2822 5.73399C11.3209 5.69802 11.3662 5.67001 11.4156 5.65157C11.4651 5.63313 11.5177 5.62462 11.5704 5.62653C11.6232 5.62844 11.675 5.64073 11.723 5.66269C11.771 5.68465 11.8142 5.71586 11.8501 5.75453L13.166 7.1727V7.1727ZM8.53854 15.753C8.68918 15.9153 8.67991 16.1719 8.518 16.3233L7.64196 17.141C7.60331 17.1769 7.55794 17.205 7.50845 17.2234C7.45897 17.2418 7.40633 17.2504 7.35355 17.2484C7.30077 17.2465 7.24889 17.2343 7.20086 17.2123C7.15283 17.1903 7.10961 17.1591 7.07365 17.1204L1.98178 11.6298C1.90933 11.5512 1.87081 11.4473 1.87458 11.3405C1.87835 11.2337 1.92411 11.1327 2.00192 11.0595L2.87634 10.2422C2.95446 10.1697 3.05819 10.1311 3.16475 10.1349C3.27131 10.1388 3.37198 10.1848 3.44466 10.2628L8.53854 15.753ZM17.0222 7.36966C17.0945 7.44831 17.1329 7.55233 17.129 7.65913C17.1251 7.76592 17.0791 7.86685 17.0012 7.93998L16.1256 8.75762C16.0475 8.83027 15.9437 8.86895 15.8371 8.86517C15.7304 8.8614 15.6297 8.81547 15.5569 8.73748L10.4642 3.24807C10.3917 3.16957 10.3531 3.06558 10.3568 2.95876C10.3606 2.85193 10.4064 2.75093 10.4843 2.67774L11.3624 1.8581C11.401 1.82212 11.4463 1.79411 11.4958 1.77568C11.5453 1.75724 11.5979 1.74873 11.6506 1.75064C11.7033 1.75254 11.7552 1.76483 11.8032 1.78679C11.8512 1.80876 11.8944 1.83997 11.9303 1.87864L17.0222 7.36966ZM18.8927 5.62162C18.965 5.70033 19.0034 5.80437 18.9995 5.9112C18.9957 6.01803 18.9499 6.11904 18.8721 6.19235L17.9981 7.00958C17.9595 7.04557 17.9142 7.07361 17.8647 7.09208C17.8153 7.11056 17.7627 7.1191 17.71 7.11723C17.6572 7.11536 17.6054 7.10311 17.5573 7.08118C17.5093 7.05926 17.4661 7.02808 17.4302 6.98944L12.3383 1.49761C12.2659 1.41895 12.2275 1.31494 12.2312 1.20811C12.235 1.10129 12.2807 1.00025 12.3584 0.926882L13.2333 0.108042C13.2718 0.0720064 13.3171 0.0439344 13.3665 0.0254371C13.4159 0.0069397 13.4685 -0.00161897 13.5212 0.000252107C13.5739 0.00212319 13.6258 0.0143872 13.6738 0.0363405C13.7217 0.0582937 13.7649 0.0895041 13.8008 0.128181L18.8927 5.62162V5.62162Z" fill="#575B5F"/>
</svg>
