<svg width="20" height="20" viewBox="0 0 20 20" fill="none" xmlns="http://www.w3.org/2000/svg">
<path d="M16.6667 16.6667C13.7917 16.6667 10 18.3333 10 18.3333V9.16667C10 9.16667 13.75 7.5 17.5 7.5L16.6667 16.6667Z" fill="#5C6BC0"/>
<path d="M3.33333 16.6667C6.20833 16.6667 10 18.3333 10 18.3333V9.16667C10 9.16667 6.25 7.5 2.5 7.5L3.33333 16.6667Z" fill="#7986CB"/>
<path d="M9.99984 8.33317C11.8408 8.33317 13.3332 6.84079 13.3332 4.99984C13.3332 3.15889 11.8408 1.6665 9.99984 1.6665C8.15889 1.6665 6.6665 3.15889 6.6665 4.99984C6.6665 6.84079 8.15889 8.33317 9.99984 8.33317Z" fill="#FFB74D"/>
<path d="M17.0833 13.333H17.4999C17.7499 13.333 17.9166 13.1663 17.9166 12.9163V11.2497C17.9166 10.9997 17.7499 10.833 17.4999 10.833H17.0833C16.3749 10.833 15.8333 11.3747 15.8333 12.083C15.8333 12.7913 16.3749 13.333 17.0833 13.333ZM2.91659 10.833H2.49992C2.24992 10.833 2.08325 10.9997 2.08325 11.2497V12.9163C2.08325 13.1663 2.24992 13.333 2.49992 13.333H2.91659C3.62492 13.333 4.16659 12.7913 4.16659 12.083C4.16659 11.3747 3.62492 10.833 2.91659 10.833Z" fill="#FFB74D"/>
</svg>
