<svg width="18" height="19" viewBox="0 0 18 19" fill="none" xmlns="http://www.w3.org/2000/svg">
<path d="M17.2457 15.5055C16.7954 14.439 16.142 13.4702 15.3218 12.6531C14.5041 11.8337 13.5355 11.1804 12.4694 10.7293C12.4599 10.7245 12.4503 10.7221 12.4408 10.7173C13.9278 9.64322 14.8945 7.89359 14.8945 5.9196C14.8945 2.6495 12.245 0 8.97493 0C5.70483 0 3.05534 2.6495 3.05534 5.9196C3.05534 7.89359 4.02204 9.64322 5.50911 10.7197C5.49956 10.7245 5.49001 10.7269 5.48046 10.7317C4.41112 11.1828 3.45157 11.8296 2.62808 12.6555C1.80866 13.4732 1.15535 14.4418 0.704205 15.5079C0.261005 16.5516 0.0219764 17.6706 5.96877e-05 18.8043C-0.000577397 18.8297 0.00389101 18.8551 0.0132017 18.8788C0.0225125 18.9025 0.0364771 18.9242 0.0542727 18.9424C0.0720683 18.9606 0.0933349 18.9751 0.116819 18.985C0.140304 18.9949 0.165531 19 0.191014 19H1.62318C1.7282 19 1.81174 18.9165 1.81413 18.8138C1.86187 16.9711 2.60182 15.2454 3.90986 13.9373C5.26325 12.5839 7.06061 11.8392 8.97493 11.8392C10.8893 11.8392 12.6866 12.5839 14.04 13.9373C15.3481 15.2454 16.088 16.9711 16.1357 18.8138C16.1381 18.9188 16.2217 19 16.3267 19H17.7589C17.7843 19 17.8096 18.9949 17.8331 18.985C17.8565 18.9751 17.8778 18.9606 17.8956 18.9424C17.9134 18.9242 17.9274 18.9025 17.9367 18.8788C17.946 18.8551 17.9504 18.8297 17.9498 18.8043C17.9259 17.6633 17.6896 16.5534 17.2457 15.5055V15.5055ZM8.97493 10.0251C7.87933 10.0251 6.84818 9.59786 6.07242 8.82211C5.29667 8.04636 4.86941 7.0152 4.86941 5.9196C4.86941 4.82399 5.29667 3.79284 6.07242 3.01709C6.84818 2.24133 7.87933 1.81407 8.97493 1.81407C10.0705 1.81407 11.1017 2.24133 11.8774 3.01709C12.6532 3.79284 13.0805 4.82399 13.0805 5.9196C13.0805 7.0152 12.6532 8.04636 11.8774 8.82211C11.1017 9.59786 10.0705 10.0251 8.97493 10.0251Z" fill="#071A2F"/>
</svg>
