<svg width="28" height="24" viewBox="0 0 28 24" fill="none" xmlns="http://www.w3.org/2000/svg">
<path d="M26.308 21.2308H26.2962C26.1763 18.0897 24.8747 15.1095 22.6519 12.8867C20.4291 10.664 17.4491 9.36239 14.3078 9.24244V8.3076H15.2309C15.4858 8.3076 15.6924 8.10093 15.6924 7.84606C15.6924 7.59119 15.4858 7.38452 15.2309 7.38452H12.4617C12.2068 7.38452 12.0001 7.59119 12.0001 7.84606C12.0001 8.10093 12.2068 8.3076 12.4617 8.3076H13.3847V9.24244C10.2436 9.36235 7.26342 10.6639 5.04065 12.8867C2.81788 15.1096 1.51629 18.0896 1.39634 21.2308H1.3846C0.889884 21.2308 0.432877 21.4948 0.18544 21.9231C-0.0618132 22.3515 -0.0618132 22.8794 0.18544 23.3078C0.432898 23.7361 0.889879 24.0001 1.3846 24.0001H26.3077C26.8024 24.0001 27.2594 23.7361 27.5068 23.3078C27.7541 22.8794 27.7541 22.3515 27.5068 21.9231C27.2594 21.4948 26.8024 21.2308 26.3077 21.2308H26.308ZM13.8464 10.1539C16.8254 10.1576 19.6876 11.3121 21.8355 13.3762C23.9835 15.4402 25.2509 18.2543 25.3731 21.2308H2.31987C2.44206 18.2543 3.70945 15.4402 5.85742 13.3762C8.00524 11.3121 10.8676 10.1576 13.8465 10.1539H13.8464ZM26.308 23.077H1.38488C1.13 23.077 0.923338 22.8703 0.923338 22.6154C0.923338 22.3606 1.13 22.1539 1.38488 22.1539H26.308C26.5628 22.1539 26.7695 22.3606 26.7695 22.6154C26.7695 22.8703 26.5628 23.077 26.308 23.077Z" fill="#575B5F"/>
<path d="M12.8701 3.99455C13.1298 4.25417 13.4819 4.40005 13.8491 4.40005C14.2162 4.40005 14.5684 4.25417 14.828 3.99455L15.9287 2.89388C16.2118 2.62169 16.3927 2.26028 16.4409 1.87047C16.4889 1.48085 16.4016 1.08628 16.1932 0.753288C15.886 0.284745 15.3637 0.00163998 14.8032 4.82048e-06H14.7934C14.4521 -0.000819355 14.1192 0.104059 13.84 0.300416C13.568 0.115184 13.2477 0.0136031 12.9184 0.00824396C12.5893 0.00288695 12.2658 0.0941639 11.9878 0.270334V0.270747C11.5681 0.54623 11.2947 0.996021 11.2432 1.49548C11.1917 1.99473 11.3675 2.49088 11.722 2.84629L12.8701 3.99455ZM12.4976 1.04029C12.6534 0.951069 12.8347 0.917074 13.0123 0.943859C13.1897 0.970644 13.3529 1.05677 13.4755 1.18802L13.5229 1.23541L13.5227 1.2352C13.703 1.41549 13.9951 1.41549 14.1754 1.2352L14.27 1.14063C14.4093 1.00073 14.5986 0.922224 14.796 0.923047H14.8006C15.0523 0.924489 15.2864 1.05244 15.4236 1.26343C15.5128 1.4192 15.5468 1.60052 15.52 1.77792C15.493 1.95553 15.4071 2.11872 15.2761 2.24111L14.1754 3.34178C13.9949 3.52166 13.7032 3.52166 13.5227 3.34178L12.3746 2.19369L12.3748 2.19389C12.234 2.0542 12.1557 1.86381 12.1572 1.66557C12.158 1.41296 12.286 1.17787 12.4976 1.04026L12.4976 1.04029Z" fill="#575B5F"/>
<path d="M2.24536 9.5087L4.55986 10.1289V10.1287C4.67751 10.1604 4.79887 10.1765 4.92085 10.1765C5.22518 10.1759 5.52085 10.0749 5.76212 9.88927C6.0036 9.70363 6.17709 9.4438 6.2558 9.14975L6.84963 6.93273C7.00375 6.35542 6.91515 5.74017 6.60423 5.23C6.32525 4.76373 5.86556 4.43404 5.3344 4.31948C4.86791 4.22078 4.38146 4.28898 3.96007 4.51213C3.5387 4.73527 3.20884 5.09915 3.02813 5.54049C2.56123 5.49825 2.09329 5.60704 1.69315 5.85099C1.22687 6.12998 0.896981 6.58988 0.782203 7.12104C0.674646 7.63059 0.766337 8.16196 1.03852 8.60598C1.31071 9.05021 1.74259 9.37309 2.24533 9.50865L2.24536 9.5087ZM1.68514 7.31351C1.74798 7.03041 1.92559 6.78583 2.17532 6.63809C2.46996 6.45945 2.82474 6.40876 3.15794 6.49756L3.22924 6.51652H3.22903C3.47505 6.58142 3.72724 6.43534 3.79337 6.18973L3.8385 6.0214C3.91267 5.74695 4.08905 5.51123 4.33156 5.36269C4.57387 5.21413 4.86399 5.16386 5.14213 5.22216C5.42524 5.28501 5.6696 5.46241 5.81714 5.71193C5.99619 6.00637 6.04708 6.36099 5.95828 6.69372L5.36445 8.91053V8.91073C5.2979 9.15675 5.04508 9.30263 4.79884 9.23731L2.48413 8.61711C2.20989 8.54272 1.97417 8.36635 1.82564 8.12404C1.6771 7.88173 1.62681 7.59182 1.68511 7.31369L1.68514 7.31351Z" fill="#575B5F"/>
<path d="M21.4365 9.14953C21.5154 9.44356 21.6889 9.70338 21.9302 9.88884C22.1714 10.0745 22.4671 10.1752 22.7714 10.1761C22.8932 10.1761 23.0146 10.16 23.1322 10.1283L25.4469 9.50806V9.50826C25.9499 9.37269 26.3818 9.04982 26.6537 8.60581C26.9259 8.16158 27.0176 7.6302 26.91 7.12066C26.7953 6.58949 26.4654 6.12959 25.9991 5.85061C25.5988 5.60707 25.131 5.49827 24.6643 5.5401C24.4834 5.09876 24.1538 4.73508 23.7324 4.51195C23.311 4.28881 22.8246 4.22061 22.3581 4.3191C21.8269 4.43346 21.367 4.76313 21.088 5.22962C20.7771 5.73979 20.6885 6.35504 20.8426 6.93236L21.4365 9.14953ZM21.8754 5.71147H21.8752C22.0227 5.46194 22.2673 5.28454 22.5504 5.2217C22.8191 5.16442 23.0997 5.20933 23.3368 5.348C23.5923 5.49388 23.7786 5.73619 23.8538 6.02074L23.8989 6.18928C23.9304 6.30735 24.0075 6.4083 24.1134 6.4695C24.2191 6.5307 24.345 6.54759 24.4633 6.51607L24.5354 6.49691C24.8682 6.4081 25.2225 6.45899 25.517 6.63763C25.7667 6.78537 25.9443 7.02994 26.0071 7.31306C26.0655 7.59143 26.0152 7.88131 25.8666 8.12363C25.7181 8.36595 25.4823 8.54231 25.2081 8.6167L22.8932 9.2369C22.647 9.30201 22.3946 9.15613 22.3278 8.91052L21.734 6.6935C21.6452 6.36054 21.6961 6.00594 21.8751 5.71151L21.8754 5.71147Z" fill="#575B5F"/>
</svg>
