<svg width="24" height="24" viewBox="0 0 24 24" fill="none" xmlns="http://www.w3.org/2000/svg">
<path d="M12.2119 0.00123012C4.63778 -0.115025 -0.783646 8.03119 2.2473 14.9617C1.85872 16.3073 2.0023 17.7482 2.64178 18.9904L0.490126 21.146C-0.16402 21.7685 -0.162374 22.8878 0.489054 23.5128C1.1405 24.1635 2.20106 24.1614 2.85521 23.5124L5.00366 21.3601C6.56352 22.1647 8.4359 22.1708 9.99718 21.3676C16.5816 22.8362 23.0933 17.556 23.0124 10.8017C23.0123 4.84637 18.167 0.00142422 12.2121 0.00142422L12.2119 0.00123012ZM2.28982 22.9464C1.46122 23.7425 0.251906 22.5351 1.05458 21.7128L3.06712 19.6966C3.41517 20.1688 3.83286 20.5826 4.30145 20.9306L2.28982 22.9464ZM5.13457 20.5217C4.46579 20.1254 3.8788 19.5455 3.47559 18.8618C3.47541 18.8616 3.47524 18.8614 3.47506 18.8612C1.48341 15.5268 4.31206 11.2811 8.15726 11.8302C8.15761 11.8302 8.15815 11.83 8.15851 11.83C8.15904 11.83 8.1594 11.83 8.15993 11.8302C11.9406 12.2929 13.5718 17.1332 10.8364 19.7952C9.3639 21.2934 6.93722 21.6038 5.13433 20.5215L5.13457 20.5217ZM8.61166 8.80154H9.41168V11.3211C9.14971 11.2291 8.88257 11.1543 8.61166 11.0941V8.80154ZM12.2118 20.8019C11.8009 20.8019 11.3946 20.7773 10.9966 20.7285C13.9704 18.3824 13.5416 13.4931 10.2117 11.6914V8.78616C11.1057 8.70776 11.8118 7.96364 11.8118 7.04951V4.00137C11.8118 3.7803 11.6328 3.60136 11.4117 3.60136C11.1907 3.60136 11.0117 3.7803 11.0117 4.00137V7.04951C11.0051 7.70791 10.4296 8.074 9.81169 8.00149H9.41168V4.00137C9.41168 3.7803 9.23275 3.60136 9.01167 3.60136C8.79059 3.60136 8.61166 3.7803 8.61166 4.00137V8.00149H8.21164C7.59325 8.07364 7.01856 7.70845 7.01161 7.04951V4.00137C7.00357 3.47706 6.22018 3.47441 6.21158 4.00137V7.04951C6.21158 7.96346 6.91766 8.70776 7.81163 8.78616V10.9937C5.73194 10.8755 3.66988 12.0229 2.68919 13.8638C0.562681 7.57606 5.55305 0.688542 12.2118 0.80146C25.4775 1.35023 25.4753 20.2544 12.2118 20.8021V20.8019Z" fill="#575B5F"/>
<path d="M15.8201 3.60124C14.2834 3.44248 12.8866 4.69522 13.0173 6.26185L13.1814 8.54978C13.2396 9.38285 13.7214 10.1404 14.4565 10.5449V16.8015C14.4565 17.4633 14.9947 18.0015 15.6565 18.0015C16.3183 18.0015 16.8565 17.4633 16.8565 16.8015V10.5449C17.5898 10.142 18.073 9.385 18.1312 8.54978L18.2953 6.26221C18.4264 4.86715 17.2208 3.57194 15.8201 3.60124H15.8201ZM17.4974 6.20488L17.3333 8.49282C17.2942 9.03889 16.9912 9.53303 16.5247 9.81286C16.3181 9.92304 16.0452 10.0105 16.0563 10.2938V16.8019C16.0486 17.3224 15.2659 17.3319 15.2563 16.8019V10.2938C15.2563 10.1293 15.1559 9.98199 15.0027 9.92145C14.4234 9.68305 14.0212 9.1175 13.9789 8.49284L13.8148 6.20454C13.7007 3.77786 17.6106 3.77608 17.4974 6.20454V6.2049L17.4974 6.20488Z" fill="#575B5F"/>
</svg>
