<svg width="24" height="24" viewBox="0 0 24 24" fill="none" xmlns="http://www.w3.org/2000/svg">
<path d="M5.60205 11.1978H13.6046V12.7952H5.60205V11.1978Z" fill="#575B5F"/>
<path d="M5.60205 14.3999H10.402V15.9974H5.60205V14.3999Z" fill="#575B5F"/>
<path d="M20.0025 0H8.79755C7.73795 0.0020717 6.72227 0.423945 5.97308 1.17314C5.22388 1.92234 4.80201 2.93801 4.80013 3.99761V4.80013H3.99761C2.93801 4.80201 1.92234 5.22389 1.17314 5.97308C0.423945 6.72227 0.0020732 7.73795 0 8.79755V22.4026C0.0020717 22.8257 0.17101 23.2309 0.470086 23.5301C0.76935 23.8292 1.17444 23.9981 1.59766 24.0002H2.34763C3.1503 24 3.89969 23.5972 4.34268 22.9276L5.25006 21.6001H15.225C16.2852 21.6001 17.302 21.179 18.0516 20.4294C18.8014 19.6796 19.2225 18.6628 19.2225 17.6027V17.4452L19.6799 18.1353C20.1229 18.8048 20.8721 19.2074 21.675 19.2076H22.4249C22.8453 19.1997 23.2459 19.0272 23.5405 18.7272C23.835 18.427 24 18.0232 24 17.6026V3.99764C23.9979 2.93804 23.5761 1.92237 22.8269 1.17317C22.0777 0.423974 21.062 0.00210217 20.0024 2.89676e-05L20.0025 0ZM17.6025 17.6024C17.6025 18.239 17.3498 18.8494 16.8997 19.2995C16.4495 19.7496 15.8391 20.0024 15.2026 20.0024H5.25025C4.70674 20.009 4.20368 20.2915 3.91531 20.7525L3.00021 22.0424C2.85124 22.2649 2.60037 22.3973 2.33273 22.395H1.58277V8.79772C1.58277 8.16115 1.8357 7.55076 2.28563 7.10063C2.73575 6.65051 3.34614 6.39777 3.98271 6.39777H15.2026C15.8391 6.39777 16.4495 6.65052 16.8997 7.10063C17.3498 7.55075 17.6025 8.16115 17.6025 8.79772V17.6024ZM22.4025 17.6024H21.6525C21.3901 17.5998 21.146 17.4679 21.0001 17.25L20.1 15.915C19.8878 15.5969 19.5686 15.3652 19.2 15.2626V8.79757C19.1981 7.73797 18.7762 6.72229 18.027 5.9731C17.2778 5.2239 16.2622 4.80203 15.2026 4.80015H6.39775V3.99763C6.39775 3.36106 6.65049 2.75067 7.10061 2.30055C7.55073 1.85043 8.16112 1.59768 8.79769 1.59768H20.0026C20.6392 1.59768 21.2496 1.85043 21.6997 2.30055C22.1498 2.75067 22.4026 3.36106 22.4026 3.99763L22.4025 17.6024Z" fill="#575B5F"/>
</svg>
