<svg width="20" height="20" viewBox="0 0 20 20" fill="none" xmlns="http://www.w3.org/2000/svg">
<path d="M16.6667 16.6667C13.7917 16.6667 10 18.3333 10 18.3333V9.16667C10 9.16667 13.75 7.5 17.5 7.5L16.6667 16.6667Z" fill="#5C6BC0"/>
<path d="M3.33333 16.6667C6.20833 16.6667 10 18.3333 10 18.3333V9.16667C10 9.16667 6.25 7.5 2.5 7.5L3.33333 16.6667Z" fill="#7986CB"/>
<path d="M10.0003 8.33329C11.8413 8.33329 13.3337 6.84091 13.3337 4.99996C13.3337 3.15901 11.8413 1.66663 10.0003 1.66663C8.15938 1.66663 6.66699 3.15901 6.66699 4.99996C6.66699 6.84091 8.15938 8.33329 10.0003 8.33329Z" fill="#FFB74D"/>
<path d="M17.0835 13.3333H17.5002C17.7502 13.3333 17.9168 13.1666 17.9168 12.9166V11.2499C17.9168 10.9999 17.7502 10.8333 17.5002 10.8333H17.0835C16.3752 10.8333 15.8335 11.3749 15.8335 12.0833C15.8335 12.7916 16.3752 13.3333 17.0835 13.3333ZM2.91683 10.8333H2.50016C2.25016 10.8333 2.0835 10.9999 2.0835 11.2499V12.9166C2.0835 13.1666 2.25016 13.3333 2.50016 13.3333H2.91683C3.62516 13.3333 4.16683 12.7916 4.16683 12.0833C4.16683 11.3749 3.62516 10.8333 2.91683 10.8333Z" fill="#FFB74D"/>
</svg>
