<svg width="24" height="24" viewBox="0 0 24 24" fill="none" xmlns="http://www.w3.org/2000/svg">
<path d="M11.9998 0.00038568C8.81728 0.00038568 5.76479 1.26469 3.51467 3.51505C1.26425 5.76546 0 8.81757 0 12.0001C0 15.1827 1.2643 18.2351 3.51467 20.4852C5.76508 22.7356 8.81718 23.9999 11.9998 23.9999C15.1823 23.9999 18.2347 22.7356 20.4848 20.4852C22.7353 18.2348 23.9995 15.1827 23.9995 12.0001C23.9995 9.89379 23.4449 7.82442 22.3917 5.99997C21.3385 4.17577 19.8237 2.661 17.9995 1.60782C16.1753 0.554648 14.1059 0 11.9994 0L11.9998 0.00038568ZM5.61726 20.1903L5.99976 19.5002C7.01601 17.8194 8.83549 16.7901 10.7997 16.7854H13.1548C15.1349 16.7743 16.9751 17.8056 17.9998 19.5002L18.4047 20.1752C16.5856 21.6009 14.341 22.3757 12.0299 22.3757C9.71878 22.3757 7.47429 21.6009 5.6551 20.1752L5.61726 20.1903ZM19.5895 19.0878L19.3496 18.6902C18.0431 16.5277 15.7036 15.2032 13.1773 15.1953H10.8224C8.29399 15.2032 5.95327 16.5313 4.65006 18.6978L4.41013 19.0953C2.54865 17.1113 1.53843 14.4768 1.59624 11.7568C1.65406 9.03665 2.77521 6.44749 4.71917 4.54451C6.66333 2.64138 9.27554 1.57542 11.996 1.57542C14.7165 1.57542 17.3289 2.64138 19.2729 4.54451C21.2171 6.44783 22.338 9.03685 22.3958 11.7568C22.4536 14.4767 21.4434 17.1109 19.5819 19.0953L19.5895 19.0878Z" fill="#FFBD59"/>
<path d="M12.0003 3.20306C10.6219 3.20306 9.29996 3.75052 8.32513 4.72516C7.3505 5.69999 6.80284 7.0219 6.80284 8.40033C6.80284 9.77875 7.3505 11.1009 8.32513 12.0755C9.29996 13.0503 10.6219 13.5978 12.0003 13.5978C13.3787 13.5978 14.7006 13.0503 15.6755 12.0755C16.6501 11.1009 17.1978 9.77875 17.1978 8.40033C17.1957 7.02248 16.6475 5.70167 15.6732 4.72742C14.699 3.75318 13.3781 3.20494 12.0003 3.20306V3.20306ZM12.0003 12.0001C11.0454 12.0001 10.13 11.6208 9.45477 10.9456C8.77959 10.2706 8.4003 9.35495 8.4003 8.40009C8.4003 7.44541 8.7796 6.52974 9.45477 5.85456C10.13 5.17957 11.0454 4.80028 12.0003 4.80028C12.9552 4.80028 13.8706 5.17958 14.5458 5.85456C15.221 6.52974 15.6003 7.44541 15.6003 8.40009C15.5982 9.35438 15.2184 10.2687 14.5436 10.9435C13.869 11.6181 12.9544 11.998 12.0003 12.0001Z" fill="#FFBD59"/>
</svg>
