<svg width="14" height="13" viewBox="0 0 14 13" fill="none" xmlns="http://www.w3.org/2000/svg">
<path d="M3.43474 7.52632C1.92263 7.52632 0.697895 8.75106 0.697895 10.2632C0.697895 11.7753 1.92263 13 3.43474 13C4.94685 13 6.17158 11.7753 6.17158 10.2632C6.17158 8.75106 4.94685 7.52632 3.43474 7.52632ZM7.52632 7.52632V13H13V7.52632H7.52632ZM3.42106 0L0 6.1579H6.84211L3.42106 0ZM11.8026 0.342106C11.0774 0.342106 10.5642 0.725264 10.2632 1.14263C9.96211 0.725264 9.44895 0.342106 8.72369 0.342106C7.65632 0.342106 6.84211 1.2179 6.84211 2.22369C6.84211 3.59211 8.4979 4.56369 10.2632 6.1579C12.0284 4.56369 13.6842 3.59211 13.6842 2.22369C13.6842 1.2179 12.87 0.342106 11.8026 0.342106Z" fill="#071A2F"/>
</svg>
