<svg width="14" height="16" viewBox="0 0 14 16" fill="none" xmlns="http://www.w3.org/2000/svg">
<path d="M12.1875 6.91728H8.75V3.91728H7.625C7.97323 3.45241 8.16033 2.88664 8.15794 2.30581C8.15794 1.44206 7.74922 0.630469 7.09128 0.187812L6.81216 0L6.53306 0.187812C5.875 0.630531 5.46641 1.44209 5.46641 2.30581C5.46406 2.88665 5.65122 3.4524 5.9995 3.91725H4.75V6.91725H1.8125C1.33196 6.9178 0.871263 7.10893 0.531472 7.44872C0.19168 7.78851 0.000545887 8.24921 0 8.72975V14.3527C0.000297764 14.6178 0.10575 14.872 0.293222 15.0595C0.480694 15.2469 0.734875 15.3524 1 15.3527H13C13.2651 15.3524 13.5193 15.2469 13.7068 15.0595C13.8942 14.872 13.9997 14.6178 14 14.3527V8.72978C13.9995 8.24924 13.8083 7.78854 13.4685 7.44875C13.1287 7.10896 12.668 6.91783 12.1875 6.91728V6.91728ZM6.81216 1.27587C7.03059 1.54725 7.15794 1.91544 7.15794 2.30584C7.15794 2.69625 7.03059 3.06447 6.81216 3.33581C6.59375 3.06447 6.46641 2.69625 6.46641 2.30581C6.46641 1.91538 6.59375 1.54725 6.81216 1.27587ZM5.75 4.91728H7.75V6.91728H5.75V4.91728ZM1 8.72978C1.00025 8.51437 1.08593 8.30785 1.23825 8.15553C1.39057 8.00321 1.59709 7.91753 1.8125 7.91728H12.1875C12.4029 7.91753 12.6094 8.00321 12.7618 8.15553C12.9141 8.30785 12.9998 8.51437 13 8.72978V9.71656L12.325 10.0144C12.193 10.0725 12.0503 10.1025 11.9061 10.1025C11.7619 10.1025 11.6192 10.0725 11.4872 10.0144L10.3125 9.49606L9.1375 10.0144C9.00548 10.0725 8.86283 10.1025 8.71859 10.1025C8.57436 10.1025 8.4317 10.0725 8.29969 10.0144L7.125 9.49603L5.95 10.0143C5.81798 10.0724 5.67533 10.1024 5.53109 10.1024C5.38686 10.1024 5.2442 10.0724 5.11219 10.0143L3.9375 9.49606L2.76272 10.0143C2.6307 10.0724 2.48805 10.1024 2.34381 10.1024C2.19958 10.1024 2.05692 10.0724 1.92491 10.0143L1 9.60634V8.72978ZM13 14.3527H1V10.6993L1.52119 10.9293C1.78042 11.0433 2.06054 11.1023 2.34375 11.1023C2.62696 11.1023 2.90708 11.0433 3.16631 10.9293L3.9375 10.589L4.70872 10.9293C4.96794 11.0433 5.24806 11.1023 5.53127 11.1023C5.81448 11.1023 6.09459 11.0433 6.35381 10.9293L7.125 10.589L7.89616 10.9293C8.15537 11.0433 8.43548 11.1022 8.71869 11.1022C9.00189 11.1022 9.282 11.0433 9.54122 10.9293L10.3125 10.589L11.0837 10.9293C11.3429 11.0434 11.623 11.1023 11.9062 11.1023C12.1894 11.1023 12.4695 11.0434 12.7287 10.9293L13.0004 10.8095L13.0006 14.3527H13Z" fill="#071A2F"/>
</svg>
