<svg width="13" height="19" viewBox="0 0 13 19" fill="none" xmlns="http://www.w3.org/2000/svg">
<path d="M10.3419 0.0808825C10.4576 0.147934 10.5471 0.252228 10.5958 0.376724C10.6445 0.501221 10.6496 0.638562 10.6102 0.76631L8.48181 7.68204H12.4088C12.5242 7.68199 12.6371 7.71574 12.7336 7.77912C12.83 7.8425 12.9058 7.93274 12.9515 8.03869C12.9973 8.14464 13.011 8.26167 12.991 8.37533C12.971 8.48899 12.9182 8.5943 12.839 8.67827L3.38483 18.7233C3.29335 18.8206 3.17162 18.884 3.03948 18.9033C2.90735 18.9225 2.77259 18.8964 2.65718 18.8292C2.54177 18.7621 2.45251 18.6578 2.40395 18.5334C2.35539 18.409 2.35039 18.2719 2.38978 18.1443L4.51815 11.2274H0.591122C0.475716 11.2274 0.362822 11.1936 0.266378 11.1303C0.169933 11.0669 0.0941594 10.9767 0.0484107 10.8707C0.00266204 10.7648 -0.0110589 10.6477 0.00894147 10.5341C0.0289419 10.4204 0.081788 10.3151 0.160957 10.2311L9.61513 0.18606C9.70649 0.0889175 9.82804 0.0255385 9.95999 0.00622828C10.0919 -0.0130819 10.2265 0.0128123 10.3419 0.0797007V0.0808825Z" fill="#FFBD59"/>
</svg>
