<svg width="12" height="13" viewBox="0 0 12 13" fill="none" xmlns="http://www.w3.org/2000/svg">
<path d="M11.5292 10.3659C11.2282 9.65287 10.7914 9.00521 10.2431 8.45898C9.69641 7.91118 9.04886 7.47442 8.33615 7.17282C8.32977 7.16963 8.32339 7.16804 8.31701 7.16484C9.31115 6.44676 9.95742 5.27709 9.95742 3.95742C9.95742 1.77126 8.18616 0 6 0C3.81384 0 2.04258 1.77126 2.04258 3.95742C2.04258 5.27709 2.68885 6.44676 3.68299 7.16644C3.67661 7.16963 3.67023 7.17123 3.66385 7.17442C2.94896 7.47601 2.30747 7.90846 1.75694 8.46058C1.20914 9.00723 0.772382 9.65478 0.470781 10.3675C0.174489 11.0652 0.0146918 11.8133 3.99029e-05 12.5712C-0.000386007 12.5882 0.00260125 12.6052 0.00882574 12.621C0.0150502 12.6369 0.024386 12.6513 0.0362829 12.6635C0.0481797 12.6757 0.0623971 12.6854 0.0780971 12.692C0.0937971 12.6986 0.110662 12.702 0.127699 12.702H1.08514C1.15535 12.702 1.2112 12.6462 1.2128 12.5776C1.24471 11.3457 1.73939 10.192 2.61385 9.31749C3.51863 8.41271 4.72022 7.91484 6 7.91484C7.27978 7.91484 8.48137 8.41271 9.38615 9.31749C10.2606 10.192 10.7553 11.3457 10.7872 12.5776C10.7888 12.6478 10.8446 12.702 10.9149 12.702H11.8723C11.8893 12.702 11.9062 12.6986 11.9219 12.692C11.9376 12.6854 11.9518 12.6757 11.9637 12.6635C11.9756 12.6513 11.9849 12.6369 11.9912 12.621C11.9974 12.6052 12.0004 12.5882 12 12.5712C11.984 11.8084 11.826 11.0664 11.5292 10.3659V10.3659ZM6 6.70208C5.26756 6.70208 4.5782 6.41645 4.05959 5.89783C3.54097 5.37922 3.25534 4.68986 3.25534 3.95742C3.25534 3.22498 3.54097 2.53562 4.05959 2.01701C4.5782 1.49839 5.26756 1.21276 6 1.21276C6.73244 1.21276 7.4218 1.49839 7.94041 2.01701C8.45903 2.53562 8.74466 3.22498 8.74466 3.95742C8.74466 4.68986 8.45903 5.37922 7.94041 5.89783C7.4218 6.41645 6.73244 6.70208 6 6.70208Z" fill="#071A2F"/>
</svg>
