<svg width="14" height="13" viewBox="0 0 14 13" fill="none" xmlns="http://www.w3.org/2000/svg">
<path d="M3.43478 7.52641C1.92266 7.52641 0.697904 8.75117 0.697904 10.2633C0.697904 11.7754 1.92266 13.0002 3.43478 13.0002C4.94691 13.0002 6.17166 11.7754 6.17166 10.2633C6.17166 8.75117 4.94691 7.52641 3.43478 7.52641ZM7.52641 7.52641V13.0002H13.0002V7.52641H7.52641ZM3.4211 0L0 6.15797H6.84219L3.4211 0ZM11.8028 0.34211C11.0775 0.34211 10.5643 0.725273 10.2633 1.14265C9.96223 0.725273 9.44907 0.34211 8.7238 0.34211C7.65641 0.34211 6.84219 1.21791 6.84219 2.22371C6.84219 3.59215 8.498 4.56374 10.2633 6.15797C12.0286 4.56374 13.6844 3.59215 13.6844 2.22371C13.6844 1.21791 12.8702 0.34211 11.8028 0.34211Z" fill="#071A2F"/>
</svg>
