<svg width="24" height="24" viewBox="0 0 24 24" fill="none" xmlns="http://www.w3.org/2000/svg">
<path d="M14.609 21.2498C18.2767 21.2498 21.25 18.2765 21.25 14.6088C21.25 10.9411 18.2767 7.96777 14.609 7.96777C10.9413 7.96777 7.96802 10.9411 7.96802 14.6088C7.96802 18.2765 10.9413 21.2498 14.609 21.2498Z" stroke="#071A2F" stroke-width="0.5" stroke-linecap="round" stroke-linejoin="round"/>
<path d="M12.5574 17.1471C12.7541 17.3954 13.0076 17.5928 13.2964 17.7228C13.5853 17.8528 13.9011 17.9116 14.2174 17.8941H15.2139C15.6542 17.8941 16.0765 17.7192 16.3879 17.4079C16.6993 17.0965 16.8742 16.6742 16.8742 16.2339C16.8742 15.7935 16.6993 15.3713 16.3879 15.0599C16.0765 14.7485 15.6542 14.5736 15.2139 14.5736H14.1344C13.6941 14.5736 13.2718 14.3987 12.9604 14.0873C12.6491 13.776 12.4742 13.3537 12.4742 12.9134C12.4742 12.4731 12.6491 12.0508 12.9604 11.7394C13.2718 11.428 13.6941 11.2531 14.1344 11.2531H15.1309C15.4492 11.217 15.7714 11.2673 16.0635 11.3987C16.3556 11.5302 16.6069 11.7379 16.7909 12.0001M14.6324 10.3401V18.6411M8.24742 12.3461C8.0234 12.1362 7.84504 11.8824 7.72348 11.6005C7.60193 11.3186 7.53978 11.0146 7.54092 10.7076V8.54913C7.53973 8.25446 7.5969 7.96247 7.70913 7.69001C7.82136 7.41755 7.98643 7.17001 8.19482 6.96167C8.4032 6.75333 8.65078 6.58831 8.92327 6.47614C9.19575 6.36397 9.48775 6.30687 9.78242 6.30813C10.1153 6.3143 10.443 6.39154 10.7437 6.53469C11.0443 6.67784 11.3108 6.88358 11.5254 7.13813M6.54492 8.71513H9.36742M6.54492 10.3751H9.36742" stroke="#071A2F" stroke-width="0.5" stroke-linecap="round" stroke-linejoin="round"/>
<path d="M8.00989 15.8868C6.8408 15.6382 5.76047 15.0788 4.88284 14.2674C4.0052 13.456 3.3628 12.4229 3.02339 11.2769C2.68399 10.1309 2.66015 8.91448 2.9544 7.75605C3.24865 6.59762 3.85008 5.54007 4.69525 4.69495C5.54043 3.84984 6.59801 3.24847 7.75646 2.9543C8.91491 2.66012 10.1313 2.68403 11.2773 3.02351C12.4233 3.363 13.4564 4.00546 14.2677 4.88315C15.079 5.76083 15.6384 6.8412 15.8869 8.0103" stroke="#071A2F" stroke-width="0.5" stroke-linecap="round" stroke-linejoin="round"/>
</svg>
