<svg width="35" height="36" viewBox="0 0 35 36" fill="none" xmlns="http://www.w3.org/2000/svg">
<path d="M11.25 5.0025V1.25C11.25 0.918479 11.3817 0.600537 11.6161 0.366117C11.8505 0.131696 12.1685 0 12.5 0H22.5C22.8315 0 23.1495 0.131696 23.3839 0.366117C23.6183 0.600537 23.75 0.918479 23.75 1.25V5.0025H33.75C34.0815 5.0025 34.3995 5.1342 34.6339 5.36862C34.8683 5.60304 35 5.92098 35 6.2525C35 6.58402 34.8683 6.90196 34.6339 7.13638C34.3995 7.3708 34.0815 7.5025 33.75 7.5025H1.25C0.918479 7.5025 0.600537 7.3708 0.366116 7.13638C0.131696 6.90196 0 6.58402 0 6.2525C0 5.92098 0.131696 5.60304 0.366116 5.36862C0.600537 5.1342 0.918479 5.0025 1.25 5.0025H11.25ZM13.75 5.0025H21.25V2.5025H13.75V5.0025ZM5 35.0025C4.66848 35.0025 4.35054 34.8708 4.11612 34.6364C3.8817 34.402 3.75 34.084 3.75 33.7525V7.5025H31.25V33.7525C31.25 34.084 31.1183 34.402 30.8839 34.6364C30.6495 34.8708 30.3315 35.0025 30 35.0025H5ZM13.75 27.5025C14.0815 27.5025 14.3995 27.3708 14.6339 27.1364C14.8683 26.902 15 26.584 15 26.2525V13.7525C15 13.421 14.8683 13.103 14.6339 12.8686C14.3995 12.6342 14.0815 12.5025 13.75 12.5025C13.4185 12.5025 13.1005 12.6342 12.8661 12.8686C12.6317 13.103 12.5 13.421 12.5 13.7525V26.2525C12.5 26.584 12.6317 26.902 12.8661 27.1364C13.1005 27.3708 13.4185 27.5025 13.75 27.5025ZM21.25 27.5025C21.5815 27.5025 21.8995 27.3708 22.1339 27.1364C22.3683 26.902 22.5 26.584 22.5 26.2525V13.7525C22.5 13.421 22.3683 13.103 22.1339 12.8686C21.8995 12.6342 21.5815 12.5025 21.25 12.5025C20.9185 12.5025 20.6005 12.6342 20.3661 12.8686C20.1317 13.103 20 13.421 20 13.7525V26.2525C20 26.584 20.1317 26.902 20.3661 27.1364C20.6005 27.3708 20.9185 27.5025 21.25 27.5025Z" fill="white"/>
</svg>
