<svg width="12" height="13" viewBox="0 0 12 13" fill="none" xmlns="http://www.w3.org/2000/svg">
<path d="M11.5293 10.366C11.2283 9.65293 10.7914 9.00527 10.2431 8.45904C9.69648 7.91124 9.04892 7.47448 8.33621 7.17287C8.32983 7.16968 8.32345 7.16809 8.31706 7.16489C9.31121 6.44681 9.95749 5.27713 9.95749 3.95745C9.95749 1.77128 8.18621 0 6.00004 0C3.81387 0 2.04259 1.77128 2.04259 3.95745C2.04259 5.27713 2.68887 6.44681 3.68302 7.16649C3.67664 7.16968 3.67025 7.17128 3.66387 7.17447C2.94898 7.47606 2.30749 7.90851 1.75696 8.46064C1.20915 9.00729 0.772388 9.65485 0.470785 10.3676C0.17449 11.0653 0.0146919 11.8134 3.99032e-05 12.5713C-0.000386009 12.5883 0.00260127 12.6053 0.0088258 12.6211C0.0150503 12.637 0.0243861 12.6514 0.0362831 12.6636C0.0481801 12.6758 0.0623975 12.6855 0.0780976 12.6921C0.0937978 12.6987 0.110663 12.7021 0.127699 12.7021H1.08515C1.15536 12.7021 1.21121 12.6463 1.21281 12.5777C1.24472 11.3457 1.7394 10.192 2.61387 9.31755C3.51866 8.41277 4.72025 7.91489 6.00004 7.91489C7.27983 7.91489 8.48142 8.41277 9.38621 9.31755C10.2607 10.192 10.7554 11.3457 10.7873 12.5777C10.7889 12.6479 10.8447 12.7021 10.9149 12.7021H11.8724C11.8894 12.7021 11.9063 12.6987 11.922 12.6921C11.9377 12.6855 11.9519 12.6758 11.9638 12.6636C11.9757 12.6514 11.985 12.637 11.9913 12.6211C11.9975 12.6053 12.0005 12.5883 12 12.5713C11.9841 11.8085 11.8261 11.0665 11.5293 10.366V10.366ZM6.00004 6.70213C5.26759 6.70213 4.57823 6.41649 4.05961 5.89787C3.541 5.37926 3.25536 4.68989 3.25536 3.95745C3.25536 3.225 3.541 2.53564 4.05961 2.01702C4.57823 1.4984 5.26759 1.21277 6.00004 1.21277C6.73249 1.21277 7.42185 1.4984 7.94047 2.01702C8.45908 2.53564 8.74472 3.225 8.74472 3.95745C8.74472 4.68989 8.45908 5.37926 7.94047 5.89787C7.42185 6.41649 6.73249 6.70213 6.00004 6.70213Z" fill="#071A2F"/>
</svg>
