<svg width="24" height="24" viewBox="0 0 24 24" fill="none" xmlns="http://www.w3.org/2000/svg">
<path d="M21.84 17.4536C22.767 15.7856 23.2524 13.9083 23.25 12C23.25 5.78701 18.213 0.750009 12 0.750009C10.092 0.747645 8.21498 1.23287 6.54713 2.15963L5.72251 1.33538C5.34722 0.960793 4.83863 0.750409 4.30838 0.750409C3.77814 0.750409 3.26955 0.960793 2.89426 1.33538L1.33501 2.89388C0.960395 3.26924 0.750002 3.77789 0.750002 4.3082C0.750002 4.83851 0.960395 5.34715 1.33501 5.72251L2.15963 6.54713C1.23287 8.21498 0.747645 10.092 0.750009 12C0.750009 18.213 5.78626 23.25 12 23.25C13.9081 23.2524 15.7851 22.7671 17.4529 21.84L18.2775 22.6646C18.6529 23.0392 19.1615 23.2496 19.6918 23.2496C20.2221 23.2496 20.7308 23.0392 21.1061 22.6646L22.6646 21.1061C23.0392 20.7308 23.2496 20.2221 23.2496 19.6918C23.2496 19.1615 23.0392 18.6529 22.6646 18.2775L21.84 17.4536M2.51326 4.54388C2.45093 4.48121 2.41594 4.3964 2.41594 4.30801C2.41594 4.21961 2.45093 4.13481 2.51326 4.07213L4.07251 2.51288C4.13507 2.45048 4.21983 2.41544 4.3082 2.41544C4.39656 2.41544 4.48132 2.45048 4.54388 2.51288L5.12701 3.09638C4.36672 3.68436 3.68436 4.36672 3.09638 5.12701L2.51326 4.54388M12 20.7893C7.14638 20.7893 3.21113 16.8544 3.21113 12C3.21113 7.14601 7.14638 3.21113 12 3.21113C16.8536 3.21113 20.7893 7.14601 20.7893 12C20.7893 16.8544 16.8536 20.7893 12 20.7893ZM21.4871 19.9279L19.9271 21.4871C19.8646 21.5494 19.7799 21.5844 19.6916 21.5844C19.6034 21.5844 19.5187 21.5494 19.4561 21.4871L18.873 20.9033C19.6333 20.3156 20.3156 19.6333 20.9033 18.873L21.4871 19.4561C21.5495 19.5188 21.5845 19.6036 21.5845 19.692C21.5845 19.7804 21.5495 19.8652 21.4871 19.9279" fill="#071A2F"/>
<path d="M15.5861 11.638C16.629 13.8329 17.1154 14.5652 18.9818 13.0562C20.8466 11.5484 21.7114 7.90299 14.8474 4.25612C12.981 3.26462 9.99938 5.14299 10.3358 6.72549C10.6729 8.30874 14.5451 9.44387 15.5861 11.638M18.9919 9.81849C20.2654 9.81849 18.2096 10.5164 16.9841 11.5746C16.3901 12.0876 16.6759 9.81849 18.9919 9.81849ZM17.2924 7.00937C18.5666 7.00937 16.5109 7.70612 15.2854 8.76512C14.6933 9.27737 14.9753 7.00937 17.2924 7.00937M14.5526 5.17937C15.8258 5.17937 13.7696 5.87724 12.5464 6.93399C11.9516 7.44699 12.2359 5.17937 14.5526 5.17937M15.9008 16.1136C14.3786 17.1962 13.4449 18.4787 13.8105 18.9797C14.469 19.885 14.469 19.885 17.2238 17.9245C18.7436 16.8434 19.6796 15.5594 19.314 15.0591C18.6525 14.1542 18.6525 14.1542 15.9008 16.1136ZM15.9544 15.6175C16.6489 15.6445 16.2158 15.0002 16.2956 14.1891C16.374 13.3776 15.714 13.7935 14.4705 13.7211C13.2255 13.6487 13.5874 14.6286 13.6376 15.4116C13.6883 16.1942 14.1664 15.5511 15.9544 15.6175" fill="#071A2F"/>
<path d="M11.3892 16.2208C10.9647 15.9565 10.6058 15.5953 10.2863 15.1881C10.5743 15.3047 10.9242 15.3718 11.2864 15.4408C11.4436 15.4708 11.6007 15.5008 11.7492 15.5346C11.9116 15.5721 12.0372 15.5893 12.1441 15.5893C12.7268 15.5893 12.7906 15.0951 12.8288 14.7992C12.8633 14.5318 12.9109 14.1651 13.1509 13.681C13.2769 13.4252 13.2334 13.2321 13.1746 13.1147C13.0201 12.8042 12.6541 12.7345 12.1913 12.6467C11.9333 12.5976 11.6408 12.5421 11.3498 12.4416C11.1391 12.3688 10.9729 12.3351 10.8263 12.3351C10.2646 12.3351 10.1247 12.8061 10.0223 13.1496C9.96306 13.3487 9.89594 13.5752 9.76356 13.8235C9.69771 13.9449 9.65283 14.0767 9.63081 14.2131C8.78631 12.7821 8.19269 11.1943 7.19144 10.8257C7.16819 10.8175 7.14381 10.8148 7.12056 10.8077C7.13706 10.7713 7.14756 10.7387 7.16631 10.7008C7.29231 10.4455 7.24881 10.252 7.18994 10.1346C7.07144 9.89684 6.82881 9.80046 6.51419 9.72884C6.87981 9.38421 7.36356 8.87571 8.04981 8.15196C8.10344 8.09571 8.15369 8.03946 8.20506 7.98284C8.16569 8.08334 8.11881 8.18871 8.05994 8.29821C7.85669 8.67921 7.96881 8.90759 8.23506 9.06134C8.04794 9.11946 7.91331 9.21359 7.85219 9.34934C7.35344 10.4571 7.35344 10.4571 10.6587 11.9991C12.4823 12.8503 14.1859 13.0442 14.4623 12.4333C14.9618 11.323 14.9618 11.323 11.6558 9.78246C11.2435 9.58901 10.8187 9.42338 10.3842 9.28671C10.4472 9.02346 10.4239 8.53071 10.7813 7.81184C11.0311 7.30484 10.1318 7.41621 9.19431 7.09409C9.10806 7.06409 9.03456 7.04534 8.96781 7.03109C9.64506 6.05459 9.91844 5.19284 9.58281 4.88084C8.74581 4.10496 8.74581 4.10496 6.37619 6.60134C5.39369 7.63559 4.77081 8.71221 4.71381 9.36884C4.26119 9.43709 4.13219 9.85446 4.03844 10.1691C3.97919 10.3686 3.91206 10.5947 3.77969 10.8433C3.60869 11.164 3.58394 11.4557 3.70619 11.7107C3.82131 11.9507 4.03844 12.1026 4.31069 12.2113C3.90569 12.8398 3.72719 13.5797 4.00356 14.2592C6.66794 20.8142 10.5034 20.7257 12.3169 19.3922C14.1316 18.0591 13.4607 17.5097 11.3892 16.2208M5.02581 14.7272C5.37531 12.7345 7.72319 12.8983 7.11231 13.3157C5.85269 14.1797 4.83194 15.8215 5.02581 14.7272ZM8.38844 15.607C7.12881 16.4706 6.10919 18.1112 6.30194 17.0185C6.65256 15.0238 9.00006 15.1881 8.38844 15.607ZM10.6538 17.2828C9.39419 18.1465 8.37531 19.7878 8.56731 18.6951C8.91869 16.7012 11.2647 16.8655 10.6538 17.2828Z" fill="#071A2F"/>
</svg>
