<svg width="28" height="24" viewBox="0 0 28 24" fill="none" xmlns="http://www.w3.org/2000/svg">
<path d="M26.3077 21.2307H26.2959C26.176 18.0896 24.8745 15.1095 22.6517 12.8867C20.4289 10.664 17.4489 9.36241 14.3077 9.24247V8.30764H15.2307C15.4856 8.30764 15.6923 8.10097 15.6923 7.8461C15.6923 7.59123 15.4856 7.38457 15.2307 7.38457H12.4615C12.2067 7.38457 12 7.59123 12 7.8461C12 8.10097 12.2067 8.30764 12.4615 8.30764H13.3846V9.24247C10.2435 9.36238 7.26334 10.6639 5.0406 12.8867C2.81785 15.1095 1.51627 18.0895 1.39633 21.2307H1.38458C0.889875 21.2307 0.432872 21.4947 0.185438 21.923C-0.0618126 22.3514 -0.0618126 22.8793 0.185438 23.3076C0.432894 23.736 0.88987 23.9999 1.38458 23.9999H26.3074C26.8021 23.9999 27.2591 23.736 27.5065 23.3076C27.7538 22.8793 27.7538 22.3514 27.5065 21.923C27.2591 21.4947 26.8021 21.2307 26.3074 21.2307H26.3077ZM13.8463 10.1539C16.8252 10.1576 19.6874 11.3121 21.8353 13.3762C23.9833 15.4402 25.2506 18.2542 25.3728 21.2307H2.31985C2.44203 18.2542 3.70941 15.4402 5.85736 13.3762C8.00516 11.3121 10.8675 10.1576 13.8464 10.1539H13.8463ZM26.3077 23.0769H1.38486C1.12999 23.0769 0.923328 22.8702 0.923328 22.6153C0.923328 22.3605 1.12999 22.1538 1.38486 22.1538H26.3077C26.5626 22.1538 26.7692 22.3605 26.7692 22.6153C26.7692 22.8702 26.5626 23.0769 26.3077 23.0769Z" fill="#575B5F"/>
<path d="M12.87 3.99451C13.1296 4.25413 13.4818 4.4 13.8489 4.4C14.2161 4.4 14.5682 4.25413 14.8279 3.99451L15.9285 2.89385C16.2116 2.62166 16.3925 2.26025 16.4407 1.87046C16.4887 1.48083 16.4014 1.08627 16.1931 0.75328C15.8859 0.284742 15.3635 0.00163997 14.8031 4.82043e-06H14.7932C14.452 -0.000819347 14.1191 0.104058 13.8399 0.300413C13.5679 0.115183 13.2475 0.0136029 12.9182 0.00824388C12.5892 0.00288692 12.2657 0.094163 11.9877 0.270332V0.270744C11.568 0.546224 11.2946 0.996011 11.2431 1.49547C11.1916 1.99471 11.3673 2.49085 11.7219 2.84626L12.87 3.99451ZM12.4975 1.04028C12.6532 0.95106 12.8346 0.917064 13.0122 0.943849C13.1896 0.970634 13.3528 1.05676 13.4754 1.18801L13.5227 1.2354L13.5225 1.23519C13.7028 1.41548 13.995 1.41548 14.1753 1.23519L14.2698 1.14062C14.4091 1.00072 14.5985 0.922214 14.7959 0.923037H14.8004C15.0522 0.924479 15.2863 1.05243 15.4235 1.26342C15.5127 1.41918 15.5467 1.6005 15.5199 1.7779C15.4929 1.95551 15.407 2.11869 15.2759 2.24108L14.1753 3.34175C13.9948 3.52162 13.703 3.52162 13.5225 3.34175L12.3744 2.19366L12.3746 2.19387C12.2339 2.05417 12.1556 1.86379 12.1571 1.66556C12.1579 1.41295 12.2858 1.17786 12.4974 1.04025L12.4975 1.04028Z" fill="#575B5F"/>
<path d="M2.24534 9.50848L4.55981 10.1287V10.1285C4.67747 10.1602 4.79882 10.1763 4.9208 10.1763C5.22512 10.1757 5.5208 10.0747 5.76206 9.88905C6.00354 9.70341 6.17703 9.44359 6.25574 9.14954L6.84956 6.93254C7.00368 6.35523 6.91508 5.73999 6.60417 5.22983C6.32518 4.76356 5.8655 4.43388 5.33434 4.31931C4.86786 4.22062 4.38142 4.28882 3.96003 4.51196C3.53867 4.7351 3.20881 5.09898 3.0281 5.54031C2.5612 5.49807 2.09327 5.60686 1.69313 5.85081C1.22686 6.1298 0.896972 6.58969 0.782195 7.12085C0.674639 7.63039 0.766329 8.16175 1.03851 8.60577C1.3107 9.05 1.74258 9.37287 2.2453 9.50843L2.24534 9.50848ZM1.68512 7.31332C1.74796 7.03022 1.92557 6.78564 2.17529 6.6379C2.46993 6.45926 2.82471 6.40857 3.15791 6.49737L3.2292 6.51633H3.229C3.47501 6.58123 3.72721 6.43515 3.79334 6.18955L3.83846 6.02121C3.91263 5.74677 4.08901 5.51105 4.33152 5.36251C4.57383 5.21396 4.86394 5.16368 5.14208 5.22199C5.42518 5.28483 5.66954 5.46223 5.81708 5.71175C5.99613 6.00618 6.04702 6.3608 5.95822 6.69353L5.36439 8.91031V8.91052C5.29784 9.15653 5.04503 9.30241 4.79879 9.23709L2.48411 8.6169C2.20987 8.54252 1.97415 8.36615 1.82562 8.12384C1.67708 7.88153 1.62679 7.59162 1.6851 7.31349L1.68512 7.31332Z" fill="#575B5F"/>
<path d="M21.4363 9.14932C21.5152 9.44334 21.6887 9.70316 21.9299 9.88861C22.1712 10.0743 22.4669 10.175 22.7712 10.1758C22.893 10.1758 23.0143 10.1598 23.132 10.128L25.4467 9.50784V9.50804C25.9496 9.37247 26.3815 9.0496 26.6535 8.6056C26.9256 8.16137 27.0173 7.63 26.9098 7.12046C26.795 6.58931 26.4651 6.12941 25.9988 5.85043C25.5985 5.60689 25.1308 5.4981 24.6641 5.53992C24.4832 5.09858 24.1535 4.7349 23.7321 4.51179C23.3108 4.28864 22.8243 4.22044 22.3578 4.31893C21.8267 4.43329 21.3668 4.76296 21.0878 5.22945C20.7769 5.73961 20.6883 6.35485 20.8424 6.93216L21.4363 9.14932ZM21.8751 5.71129H21.8749C22.0225 5.46177 22.267 5.28436 22.5501 5.22152C22.8188 5.16424 23.0994 5.20916 23.3366 5.34782C23.5921 5.4937 23.7783 5.73601 23.8536 6.02056L23.8987 6.1891C23.9302 6.30716 24.0073 6.40812 24.1132 6.46931C24.2189 6.53051 24.3448 6.54741 24.463 6.51588L24.5351 6.49672C24.8679 6.40791 25.2223 6.45881 25.5167 6.63745C25.7664 6.78518 25.944 7.02975 26.0069 7.31287C26.0652 7.59123 26.0149 7.88111 25.8664 8.12343C25.7178 8.36574 25.4821 8.5421 25.2079 8.61649L22.893 9.23668C22.6467 9.30179 22.3944 9.15592 22.3276 8.91031L21.7338 6.69331C21.645 6.36035 21.6958 6.00576 21.8749 5.71133L21.8751 5.71129Z" fill="#575B5F"/>
</svg>
