<svg width="14" height="13" viewBox="0 0 14 13" fill="none" xmlns="http://www.w3.org/2000/svg">
<path d="M3.43474 7.52631C1.92263 7.52631 0.697894 8.75105 0.697894 10.2632C0.697894 11.7753 1.92263 13 3.43474 13C4.94684 13 6.17158 11.7753 6.17158 10.2632C6.17158 8.75105 4.94684 7.52631 3.43474 7.52631ZM7.52631 7.52631V13H13V7.52631H7.52631ZM3.42105 0L0 6.15789H6.8421L3.42105 0ZM11.8026 0.342105C11.0774 0.342105 10.5642 0.725263 10.2632 1.14263C9.9621 0.725263 9.44894 0.342105 8.72368 0.342105C7.65631 0.342105 6.8421 1.21789 6.8421 2.22368C6.8421 3.5921 8.49789 4.56368 10.2632 6.15789C12.0284 4.56368 13.6842 3.5921 13.6842 2.22368C13.6842 1.21789 12.87 0.342105 11.8026 0.342105Z" fill="#071A2F"/>
</svg>
