<svg width="21" height="21" viewBox="0 0 21 21" fill="none" xmlns="http://www.w3.org/2000/svg">
<path d="M20.614 16.4498L15.8222 12.093C15.5957 11.8871 15.2981 11.7773 14.9921 11.7868C14.6862 11.7962 14.3959 11.9242 14.1825 12.1437L11.3616 15.0447C10.6826 14.915 9.31758 14.4895 7.91245 13.0879C6.50732 11.6816 6.08177 10.313 5.95564 9.6387L8.85431 6.81665C9.07406 6.60344 9.20222 6.31309 9.21168 6.00706C9.22114 5.70102 9.11116 5.40331 8.905 5.17694L4.54933 0.386284C4.34309 0.159196 4.05645 0.0214499 3.75028 0.00230077C3.44412 -0.0168483 3.14254 0.084108 2.90962 0.283729L0.351616 2.47748C0.147814 2.68202 0.0261712 2.95425 0.00976279 3.24252C-0.00791924 3.53722 -0.345056 10.5181 5.068 15.9335C9.79028 20.6546 15.7055 21 17.3346 21C17.5727 21 17.7189 20.9929 17.7578 20.9906C18.046 20.9744 18.3181 20.8522 18.5217 20.6475L20.7142 18.0884C20.9147 17.8562 21.0164 17.5548 20.9976 17.2487C20.9789 16.9426 20.8413 16.6559 20.614 16.4498V16.4498Z" fill="white"/>
</svg>
