<svg width="24" height="24" viewBox="0 0 24 24" fill="none" xmlns="http://www.w3.org/2000/svg">
<path d="M18.7286 3.26188C18.4061 3.26188 18.0859 3.29234 17.7709 3.35348C17.0409 1.39568 14.7348 0 12.0483 0C9.30812 0 6.97095 1.46445 6.29034 3.46936C5.82043 3.33239 5.32687 3.26188 4.83118 3.26188C2.1672 3.26188 0 5.2555 0 7.70599C0 9.95204 1.81978 11.8138 4.17505 12.1096V23.2843C4.17505 23.6798 4.49564 24 4.89078 24H18.7282C19.1233 24 19.4439 23.6798 19.4439 23.2843V12.1009C21.737 11.7784 23.4997 9.93072 23.4997 7.70687C23.4997 5.25572 21.3591 3.2621 18.7282 3.2621L18.7286 3.26188ZM5.60716 22.5683V20.1825H18.0131V22.5683H5.60716ZM18.7286 10.7191C18.3334 10.7191 18.0128 11.0392 18.0128 11.4348V18.7508H16.5814V15.8879C16.5814 15.4923 16.2608 15.1721 15.8657 15.1721C15.4705 15.1721 15.1499 15.4923 15.1499 15.8879V18.7508H12.7642V14.4564C12.7642 14.0608 12.4436 13.7407 12.0484 13.7407C11.6533 13.7407 11.3327 14.0608 11.3327 14.4564V18.7508H8.94696V15.8879C8.94696 15.4923 8.62637 15.1721 8.23123 15.1721C7.83609 15.1721 7.5155 15.4923 7.5155 15.8879V18.7508H5.60689V11.4321C5.60689 11.2408 5.53063 11.0576 5.39452 10.923C5.25861 10.7884 5.06286 10.7087 4.88307 10.7164L4.83195 10.7187C2.9572 10.7187 1.43223 9.36692 1.43223 7.70605C1.43223 6.04452 2.9572 4.69339 4.83195 4.69339C5.41456 4.69339 5.98987 4.82695 6.49625 5.08044C6.70905 5.18695 6.96105 5.18013 7.16808 5.06319C7.37513 4.94624 7.51125 4.73344 7.52936 4.49595C7.66334 2.77776 9.6484 1.43176 12.0489 1.43176C14.335 1.43176 16.3141 2.70813 16.5546 4.3377C16.5861 4.54964 16.7105 4.73667 16.8947 4.8468C17.0779 4.95693 17.3022 4.97951 17.5035 4.90687C17.8995 4.76521 18.3113 4.69364 18.7284 4.69364C20.5697 4.69364 22.0684 6.04543 22.0684 7.7063C22.0687 9.36739 20.5699 10.7192 18.7286 10.7192L18.7286 10.7191Z" fill="#FFBD59"/>
</svg>
