<svg width="24" height="24" viewBox="0 0 24 24" fill="none" xmlns="http://www.w3.org/2000/svg">
<path d="M5.60199 11.1976H13.6045V12.7951H5.60199V11.1976Z" fill="#575B5F"/>
<path d="M5.60199 14.3996H10.4019V15.9971H5.60199V14.3996Z" fill="#575B5F"/>
<path d="M20.0023 0H8.79746C7.73787 0.00207168 6.72221 0.423941 5.97302 1.17313C5.22383 1.92232 4.80196 2.93798 4.80008 3.99757V4.80008H3.99757C2.93798 4.80196 1.92232 5.22383 1.17313 5.97302C0.423941 6.72221 0.00207318 7.73787 0 8.79746V22.4023C0.00207168 22.8255 0.171008 23.2306 0.470081 23.5299C0.769342 23.829 1.17443 23.9979 1.59765 24H2.34761C3.15027 23.9998 3.89965 23.5969 4.34263 22.9274L5.25001 21.5999H15.2249C16.285 21.5999 17.3018 21.1787 18.0514 20.4292C18.8012 19.6794 19.2223 18.6626 19.2223 17.6025V17.445L19.6797 18.1351C20.1227 18.8046 20.8719 19.2072 21.6747 19.2074H22.4247C22.8451 19.1995 23.2456 19.027 23.5402 18.727C23.8348 18.4268 23.9998 18.023 23.9998 17.6025V3.9976C23.9977 2.93801 23.5758 1.92235 22.8266 1.17316C22.0774 0.42397 21.0618 0.00210215 20.0022 2.89673e-05L20.0023 0ZM17.6023 17.6022C17.6023 18.2388 17.3496 18.8492 16.8995 19.2993C16.4494 19.7494 15.839 20.0022 15.2024 20.0022H5.2502C4.70669 20.0088 4.20363 20.2913 3.91527 20.7523L3.00018 22.0422C2.85121 22.2646 2.60034 22.397 2.33271 22.3948H1.58275V8.79763C1.58275 8.16106 1.83568 7.55068 2.28561 7.10056C2.73572 6.65045 3.34611 6.39771 3.98267 6.39771H15.2024C15.839 6.39771 16.4494 6.65045 16.8995 7.10056C17.3496 7.55068 17.6023 8.16106 17.6023 8.79763V17.6022ZM22.4022 17.6022H21.6523C21.3899 17.5996 21.1458 17.4678 20.9999 17.2499L20.0998 15.9148C19.8876 15.5967 19.5684 15.3651 19.1998 15.2624V8.79748C19.1979 7.73789 18.776 6.72223 18.0269 5.97304C17.2777 5.22385 16.262 4.80198 15.2024 4.8001H6.39768V3.99759C6.39768 3.36103 6.65043 2.75064 7.10054 2.30052C7.55065 1.85041 8.16104 1.59767 8.7976 1.59767H20.0024C20.639 1.59767 21.2493 1.85041 21.6995 2.30052C22.1496 2.75064 22.4023 3.36103 22.4023 3.99759L22.4022 17.6022Z" fill="#575B5F"/>
</svg>
