<svg width="14" height="13" viewBox="0 0 14 13" fill="none" xmlns="http://www.w3.org/2000/svg">
<path d="M3.43473 7.5263C1.92263 7.5263 0.697894 8.75104 0.697894 10.2631C0.697894 11.7752 1.92263 13 3.43473 13C4.94683 13 6.17157 11.7752 6.17157 10.2631C6.17157 8.75104 4.94683 7.5263 3.43473 7.5263ZM7.5263 7.5263V13H13V7.5263H7.5263ZM3.42105 0L0 6.15789H6.84209L3.42105 0ZM11.8026 0.342105C11.0774 0.342105 10.5642 0.725262 10.2631 1.14263C9.96209 0.725262 9.44893 0.342105 8.72367 0.342105C7.6563 0.342105 6.84209 1.21789 6.84209 2.22368C6.84209 3.5921 8.49788 4.56368 10.2631 6.15789C12.0284 4.56368 13.6842 3.5921 13.6842 2.22368C13.6842 1.21789 12.87 0.342105 11.8026 0.342105Z" fill="#071A2F"/>
</svg>
