<svg width="88" height="20" viewBox="0 0 88 20" fill="none" xmlns="http://www.w3.org/2000/svg">
<path d="M44 18.75C41.6794 18.75 39.4538 17.8281 37.8128 16.1872C36.1719 14.5462 35.25 12.3206 35.25 10C35.25 7.67936 36.1719 5.45376 37.8128 3.81282C39.4538 2.17187 41.6794 1.25 44 1.25C46.3206 1.25 48.5462 2.17187 50.1872 3.81282C51.8281 5.45376 52.75 7.67936 52.75 10C52.75 12.3206 51.8281 14.5462 50.1872 16.1872C48.5462 17.8281 46.3206 18.75 44 18.75ZM44 20C46.6522 20 49.1957 18.9464 51.0711 17.0711C52.9464 15.1957 54 12.6522 54 10C54 7.34784 52.9464 4.8043 51.0711 2.92893C49.1957 1.05357 46.6522 0 44 0C41.3478 0 38.8043 1.05357 36.9289 2.92893C35.0536 4.8043 34 7.34784 34 10C34 12.6522 35.0536 15.1957 36.9289 17.0711C38.8043 18.9464 41.3478 20 44 20V20Z" fill="#6B6983"/>
<path d="M39.3564 11.9587C39.5 11.8759 39.6706 11.8534 39.8307 11.8963C39.9908 11.9392 40.1273 12.044 40.2102 12.1875C40.5941 12.8529 41.1465 13.4055 41.8118 13.7895C42.4772 14.1735 43.232 14.3755 44.0002 14.375C44.7684 14.3755 45.5232 14.1735 46.1885 13.7895C46.8539 13.4055 47.4063 12.8529 47.7902 12.1875C47.8309 12.1158 47.8854 12.053 47.9506 12.0025C48.0157 11.952 48.0902 11.9148 48.1697 11.8932C48.2493 11.8716 48.3323 11.866 48.4141 11.8766C48.4958 11.8872 48.5746 11.9139 48.646 11.9551C48.7174 11.9964 48.7799 12.0513 48.83 12.1168C48.8801 12.1822 48.9167 12.257 48.9377 12.3367C48.9588 12.4163 48.9639 12.4994 48.9527 12.5811C48.9416 12.6627 48.9144 12.7414 48.8727 12.8125C48.3791 13.6679 47.6689 14.3783 46.8135 14.872C45.9581 15.3657 44.9878 15.6254 44.0002 15.625C43.0125 15.6254 42.0422 15.3657 41.1869 14.872C40.3315 14.3783 39.6213 13.6679 39.1277 12.8125C39.0448 12.669 39.0223 12.4984 39.0652 12.3383C39.1081 12.1781 39.2129 12.0416 39.3564 11.9587ZM42.7502 8.125C42.7502 9.16 42.1902 10 41.5002 10C40.8102 10 40.2502 9.16 40.2502 8.125C40.2502 7.09 40.8102 6.25 41.5002 6.25C42.1902 6.25 42.7502 7.09 42.7502 8.125ZM47.7502 8.125C47.7502 9.16 47.1902 10 46.5002 10C45.8102 10 45.2502 9.16 45.2502 8.125C45.2502 7.09 45.8102 6.25 46.5002 6.25C47.1902 6.25 47.7502 7.09 47.7502 8.125Z" fill="#6B6983"/>
<g clip-path="url(#clip0_63_2990)">
<path d="M86 9.99992L78.324 17.6759C77.2585 18.7141 75.8269 19.2908 74.3393 19.2811C72.8516 19.2714 71.4277 18.6761 70.3757 17.6242C69.3238 16.5723 68.7286 15.1483 68.7189 13.6607C68.7092 12.173 69.2859 10.7415 70.324 9.67592L78.2294 1.77059C78.9366 1.06334 79.8958 0.666016 80.896 0.666016C81.8962 0.666016 82.8554 1.06334 83.5627 1.77059C84.2699 2.47783 84.6673 3.43706 84.6673 4.43725C84.6673 5.43745 84.2699 6.39667 83.5627 7.10392L75.8854 14.7813C75.5317 15.1349 75.0521 15.3335 74.552 15.3335C74.0519 15.3335 73.5723 15.1349 73.2187 14.7813C72.8651 14.4276 72.6664 13.948 72.6664 13.4479C72.6664 12.9478 72.8651 12.4682 73.2187 12.1146L80.6667 4.66659" stroke="#6B6983" stroke-width="1.6"/>
</g>
<path d="M10 11.6665C11.3833 11.6665 12.5 10.5498 12.5 9.1665V4.1665C12.5 2.78317 11.3833 1.6665 10 1.6665C8.61667 1.6665 7.5 2.78317 7.5 4.1665V9.1665C7.5 10.5498 8.61667 11.6665 10 11.6665Z" fill="#6B6983"/>
<path d="M14.9248 9.1665C14.5165 9.1665 14.1748 9.4665 14.1082 9.87484C13.7665 11.8415 12.0582 13.3332 9.99983 13.3332C7.94149 13.3332 6.23316 11.8415 5.89149 9.87484C5.8621 9.67882 5.76368 9.49975 5.61395 9.36988C5.46422 9.24001 5.27303 9.16789 5.07483 9.1665C4.56649 9.1665 4.16649 9.6165 4.24149 10.1165C4.64983 12.6165 6.64983 14.5665 9.16649 14.9332V16.6665C9.16649 17.1248 9.54149 17.4998 9.99983 17.4998C10.4582 17.4998 10.8332 17.1248 10.8332 16.6665V14.9332C13.3498 14.5665 15.3498 12.6165 15.7582 10.1165C15.8415 9.6165 15.4332 9.1665 14.9248 9.1665Z" fill="#6B6983"/>
<defs>
<clipPath id="clip0_63_2990">
<rect width="20" height="20" fill="white" transform="translate(68)"/>
</clipPath>
</defs>
</svg>
