<svg width="13" height="14" viewBox="0 0 13 14" fill="none" xmlns="http://www.w3.org/2000/svg">
<path d="M0.5 13.1667H12.5ZM0.5 11.1667H12.5Z" fill="#071A2F"/>
<path d="M0.5 13.1667H12.5M0.5 11.1667H12.5" stroke="black" stroke-linecap="round"/>
<path d="M1.5 7.5C1.5 4.73867 3.73867 2.5 6.5 2.5C9.26133 2.5 11.5 4.73867 11.5 7.5V11.1667H1.5V7.5Z" stroke="black" stroke-linecap="round" stroke-linejoin="round"/>
<path d="M4.16699 7.5V8.83333" stroke="black" stroke-linecap="round"/>
<path d="M7.83366 2.5V1.83333C7.83366 1.47971 7.69318 1.14057 7.44313 0.890524C7.19309 0.640476 6.85395 0.5 6.50033 0.5C6.1467 0.5 5.80757 0.640476 5.55752 0.890524C5.30747 1.14057 5.16699 1.47971 5.16699 1.83333V2.5" stroke="black"/>
</svg>
