<svg width="20" height="20" viewBox="0 0 20 20" fill="none" xmlns="http://www.w3.org/2000/svg">
<path d="M5.62123 3.1229C5.24648 3.1229 4.99665 3.49765 4.99665 3.74748V6.87039H3.74748V3.74748C3.74748 3.37274 3.49765 3.1229 3.1229 3.1229C2.74816 3.1229 2.49832 3.49765 2.49832 3.74748V6.87039H1.24916V3.74748C1.24916 3.37274 0.999329 3.1229 0.624581 3.1229C0.249832 3.1229 0 3.49765 0 3.74748V7.86972C0 8.99396 0.874413 9.86837 1.87374 9.99329V18.7374C1.87374 19.4869 2.37341 19.9866 3.1229 19.9866C3.8724 19.9866 4.37206 19.4869 4.37206 18.7374V9.99329C5.37139 9.86837 6.24581 8.99396 6.24581 7.86972V3.74748C6.24581 3.49765 5.99597 3.1229 5.62123 3.1229ZM8.11955 3.74748V11.2425H9.36871V18.7374C9.36871 19.4869 9.86837 19.9866 10.6179 19.9866C11.3674 19.9866 11.867 19.4869 11.867 18.7374V0C9.74346 0 8.11955 1.62391 8.11955 3.74748ZM16.8637 2.49832C15.1149 2.49832 13.7408 4.37207 13.7408 6.62056C13.6159 8.11955 14.3654 9.49363 15.6145 10.368V18.7374C15.6145 19.4869 16.1142 19.9866 16.8637 19.9866C17.6132 19.9866 18.1128 19.4869 18.1128 18.7374V10.368C19.362 9.49363 20.1115 8.11955 19.9866 6.62056C19.9866 4.37207 18.6125 2.49832 16.8637 2.49832Z" fill="#071A2F"/>
</svg>
